<?xml version="1.0" encoding="UTF-8"?>
<svg id="Layer_1" data-name="Layer 1" xmlns="http://www.w3.org/2000/svg" width="4in" height="4in" viewBox="0 0 288 288">
  <defs>
    <style>
      .cls-1 {
        fill: #182550;
      }

      .cls-1, .cls-2, .cls-3, .cls-4, .cls-5, .cls-6, .cls-7, .cls-8, .cls-9, .cls-10 {
        stroke-width: 0px;
      }

      .cls-2 {
        fill: #35c6f4;
      }

      .cls-3 {
        fill: #13b2e0;
      }

      .cls-4 {
        fill: #d61e3d;
      }

      .cls-5 {
        fill: #8da3b5;
      }

      .cls-6 {
        fill: #fff;
      }

      .cls-7 {
        fill: #eef3f5;
      }

      .cls-8 {
        fill: #eef4f4;
      }

      .cls-9 {
        fill: #fafbfc;
      }

      .cls-10 {
        fill: #f4f8f8;
      }
    </style>
  </defs>
  <rect class="cls-2" x="80.7" y="75.7" width="125.6" height="125.6" transform="translate(-55.9 142.1) rotate(-45)"/>
  <g>
    <path class="cls-1" d="M241,138.5l-97.5,97.5-97.5-97.5,97.5-97.5,97.5,97.5ZM143.5,226.9l88.4-88.4-88.4-88.4-88.4,88.4,88.4,88.4Z"/>
    <path class="cls-1" d="M143.5,236l-97.5-97.5,97.5-97.5,97.5,97.5-97.5,97.5ZM46.1,138.5l97.4,97.4,97.4-97.4-97.4-97.4-97.4,97.4ZM143.5,226.9l-88.4-88.4,88.4-88.4,88.4,88.4-88.4,88.4ZM55.2,138.5l88.3,88.3,88.3-88.3-88.3-88.3-88.3,88.3Z"/>
  </g>
  <g>
    <path class="cls-4" d="M245.5,226.7c-66.4-18.2-136.5-18.2-203,0-.4-1.3-.7-2.6-1.1-3.9,67.1-18.4,138-18.4,205.1,0-.4,1.3-.7,2.6-1.1,3.9Z"/>
    <path class="cls-1" d="M144,209c34.5,0,69,4.6,102.6,13.8-.4,1.3-.7,2.6-1.1,3.9-33.2-9.1-67.4-13.6-101.5-13.6s-68.3,4.5-101.5,13.6c-.4-1.3-.7-2.6-1.1-3.9,33.6-9.2,68.1-13.8,102.6-13.8M144,203.9c-35.1,0-70.1,4.7-103.9,14-1.3.4-2.4,1.2-3.1,2.4-.7,1.2-.8,2.6-.5,3.9l.5,2,.5,2c.6,2.3,2.7,3.8,4.9,3.8s.9,0,1.4-.2c32.6-8.9,66.3-13.5,100.1-13.5s67.5,4.5,100.1,13.5c.4.1.9.2,1.3.2.9,0,1.8-.2,2.5-.7,1.2-.7,2-1.8,2.4-3.1l1.1-3.9c.4-1.3.2-2.7-.5-3.9-.7-1.2-1.8-2-3.1-2.4-33.9-9.3-68.8-14-103.9-14h0Z"/>
  </g>
  <path class="cls-10" d="M134,60.3c1.3,3.7,2.7,7,3.6,10.5.5,1.8-.2,3.7-1.6,4.7-1.4.9-3.3.9-4.6,0-1.5-1-2.2-2.8-1.6-4.6,1.1-3.5,2.6-6.9,4.1-10.5Z"/>
  <path class="cls-10" d="M76.6,124.8c1.3,3.7,2.7,7,3.6,10.5.5,1.8-.2,3.7-1.6,4.7-1.4.9-3.3.9-4.6,0-1.5-1-2.2-2.8-1.6-4.6,1.1-3.5,2.6-6.9,4.1-10.5Z"/>
  <path class="cls-10" d="M146.2,183.8c2,5.7,4.2,10.8,5.6,16.1.7,2.8-.3,5.7-2.4,7.1-2.1,1.4-5,1.4-7.1,0-2.3-1.6-3.3-4.3-2.5-7.1,1.7-5.4,3.9-10.5,6.4-16.1Z"/>
  <g>
    <path class="cls-2" d="M247.7,221c-.1,0-.2,0-.4,0-16.5-5.2-33.7-9.2-51-11.9-17.2-2.6-34.9-4-52.4-4-17.5,0-35.1,1.3-52.4,4-17.2,2.6-34.5,6.6-51,11.9-.1,0-.2,0-.4,0-.6,0-1.1,0-1.6-.3-.6-.4-1-1-1.1-1.7-.3-1.6-.5-3.3-.8-4.9-.1-.8.2-1.6.8-2.1,0,0-.2,0-.3-.1-.6-.4-1-1-1.1-1.6-.3-1.6-.5-3.3-.8-4.9-.1-.8.2-1.6.8-2.1-.1,0-.2,0-.3-.2-.6-.4-1-1-1.1-1.6-.3-1.6-.5-3.3-.8-4.9-.1-.8.2-1.6.8-2.1-.1,0-.2-.1-.3-.2-.6-.4-1-.9-1.1-1.6-.3-1.6-.5-3.3-.8-4.9-.1-.8.2-1.6.8-2.1-.1,0-.2-.1-.4-.2-.6-.4-.9-.9-1-1.6-.3-1.6-.5-3.3-.8-4.9-.1-.8.2-1.6.8-2.1-.1,0-.3-.1-.4-.2-.6-.4-.9-.9-1-1.6-.3-1.6-.5-3.3-.8-4.9-.2-1.3.8-2.5,2.2-2.7,74.2-11.2,149.6-11.2,223.7,0,1.4.2,2.4,1.4,2.2,2.7-.3,1.6-.5,3.3-.8,4.9,0,.6-.5,1.2-1,1.6-.1,0-.3.2-.4.2.6.5.9,1.3.8,2.1-.3,1.6-.5,3.3-.8,4.9,0,.6-.5,1.2-1,1.6-.1,0-.2.1-.4.2.6.5.9,1.3.8,2.1-.3,1.6-.5,3.3-.8,4.9-.1.7-.5,1.2-1.1,1.6-.1,0-.2.1-.3.2.6.5.9,1.3.8,2.1-.3,1.6-.5,3.3-.8,4.9-.1.7-.5,1.3-1.1,1.6,0,0-.2.1-.3.2.6.5.9,1.3.8,2.1-.3,1.6-.5,3.3-.8,4.9-.1.7-.5,1.3-1.1,1.6,0,0-.2.1-.3.1.6.5.9,1.3.8,2.1-.3,1.6-.5,3.3-.8,4.9-.1.7-.5,1.3-1.1,1.7-.5.3-1.1.4-1.6.3Z"/>
    <path class="cls-1" d="M255.5,169.5c-.2,1.6-.5,3.3-.7,4.9-36.6-6.1-73.7-9.1-110.8-9.1-37.1,0-74.2,3.1-110.8,9.1-.2-1.6-.5-3.3-.7-4.9,73.9-11.2,149.1-11.2,223,0M144,168.6c36.9,0,73.8,3.3,110.2,9.7-.2,1.6-.5,3.3-.7,4.9-36-7-72.7-10.5-109.4-10.5-36.7,0-73.4,3.5-109.4,10.5-.2-1.6-.5-3.3-.7-4.9,36.3-6.5,73.2-9.8,110.2-9.7M144,176.1c36.6,0,73.1,3.7,108.8,11.1-.2,1.6-.5,3.3-.7,4.9-35.3-7.9-71.7-11.9-108.1-11.9-36.4,0-72.7,4-108.1,11.9-.2-1.6-.5-3.3-.7-4.9,35.7-7.4,72.3-11.1,108.8-11.1M144,183.5c36.2,0,72.4,4.2,107.5,12.5-.2,1.6-.5,3.3-.7,4.9-34.7-8.8-70.7-13.2-106.8-13.2-36,0-72,4.5-106.8,13.2-.2-1.6-.5-3.3-.7-4.9,35.1-8.3,71.3-12.5,107.5-12.5M144,191c35.9,0,71.7,4.7,106.2,13.8-.2,1.6-.5,3.3-.7,4.9-34.1-9.7-69.8-14.6-105.4-14.6-35.7,0-71.3,4.9-105.4,14.6-.2-1.6-.5-3.3-.7-4.9,34.4-9.2,70.3-13.8,106.2-13.8M144,198.5c35.5,0,71,5.1,104.8,15.2-.2,1.6-.5,3.3-.7,4.9-33.5-10.6-68.8-16-104.1-16-35.3,0-70.6,5.4-104.1,16-.2-1.6-.5-3.3-.7-4.9,33.8-10.1,69.3-15.2,104.8-15.2M256.2,164.8c-74.4-11.3-150.1-11.3-224.4,0-2.8.4-4.8,2.9-4.4,5.5.3,1.6.5,3.3.8,4.9.1.7.4,1.3.8,1.9-.2.6-.3,1.3-.1,2,.3,1.6.5,3.3.8,4.9.1.7.4,1.3.8,1.9-.2.6-.2,1.3-.1,2,.3,1.6.5,3.3.8,4.9.1.7.4,1.3.7,1.9-.2.6-.2,1.3-.1,2,.3,1.6.5,3.3.8,4.9.1.7.4,1.3.7,1.9-.2.6-.2,1.3-.1,2,.3,1.6.5,3.3.8,4.9.1.7.4,1.3.7,1.9-.2.6-.2,1.3-.1,2,.3,1.6.5,3.3.8,4.9.2,1.4,1,2.6,2.2,3.3,1,.6,2.1.8,3.3.7.2,0,.5,0,.7-.2,16.4-5.2,33.5-9.2,50.6-11.8,17.1-2.6,34.7-4,52-4,17.3,0,34.9,1.3,52,4,17.1,2.6,34.2,6.6,50.6,11.8.2,0,.5.1.7.2,1.1.2,2.3,0,3.3-.7,1.2-.7,2-1.9,2.2-3.3.3-1.6.5-3.3.8-4.9.1-.7,0-1.4-.1-2,.4-.6.6-1.2.7-1.9.3-1.6.5-3.3.8-4.9.1-.7,0-1.4-.1-2,.4-.6.6-1.2.7-1.9.3-1.6.5-3.3.8-4.9.1-.7,0-1.4-.1-2,.4-.6.6-1.2.7-1.9.3-1.6.5-3.3.8-4.9.1-.7,0-1.4-.1-2,.4-.6.6-1.2.8-1.9.3-1.6.5-3.3.8-4.9.1-.7,0-1.4-.1-2,.4-.6.7-1.2.8-1.9.3-1.6.5-3.3.8-4.9.4-2.6-1.6-5.1-4.4-5.5h0Z"/>
  </g>
  <g>
    <g>
      <path class="cls-1" d="M88.4,157.4c-.4-.8-1.3-1.3-2.1-1.8-2.4-1.6-4.1-4.3-4.3-7.2-.2-2.1-.2-5-2.2-5.5-.3-4.7,0-9.5.8-14.2-1.2-.2-2.4-.4-3.6-.6.6-6.6,2.6-13.1,5.8-18.9-1.9-1.9-1.6-5.2-.2-7.4s3.7-3.8,5.7-5.6c2-1.7,3.9-3.9,4.2-6.6.1-1.5-.3-3-.6-4.4-2.2-9.1-2.8-18.6-1.6-27.9,6.9-1.5,14,1.5,20.4,4.4,4.5,2,9.2,4.3,11.7,8.5,4.6-2.1,9.7-3.2,14.7-3.1,2,0,4,.3,5.7,1.3,1,.6,1.8,1.4,2.5,2.3,4.7,5.9,4.2,14.2,4.2,21.8,0,11.6,1.9,23,2.4,34.6.6,14.9-1.1,29.9-5.2,44.3-.3,1.1-.6,2.2-1.4,3-1,1-2.4,1.2-3.8,1.3-6.5.6-13.1-.4-19.5-1.6-4.4-.8-9.4-2.1-11.2-6.1-.1,2.7-3.5,4.1-6.1,3.3s-4.3-3-5.9-5.2c-2.1.5-4.4.9-6.5.3-1.8-.5-3.6-2-4-3.8-.4-1.7,1-3.6.1-5.3Z"/>
      <path class="cls-1" d="M137.6,175.8c-5.2,0-10.3-.8-15.6-1.7-4.5-.8-9.3-2.1-11.2-6,0,1-.6,1.9-1.5,2.5-1.3.9-3.1,1.2-4.6.7-2.4-.8-4.1-2.8-6-5.1-2,.5-4.3.9-6.5.3-1.7-.5-3.6-1.9-4.1-3.9-.2-.8,0-1.6.2-2.4.2-.9.4-1.9,0-2.8-.3-.7-1-1.1-1.7-1.5-.1,0-.3-.2-.4-.3-2.4-1.6-4.1-4.3-4.3-7.3,0-.2,0-.5,0-.7-.2-2-.3-4.3-2.1-4.7h0s0,0,0,0c-.3-4.7,0-9.5.8-14.1l-3.6-.6h0c.6-6.6,2.6-13.1,5.8-18.9-.9-.9-1.3-2.1-1.3-3.6,0-1.3.4-2.7,1.2-3.9,1.1-1.8,2.8-3.1,4.4-4.4.5-.4.9-.8,1.4-1.1,2.6-2.3,4-4.4,4.2-6.6.1-1.4-.2-2.8-.6-4.1v-.3c-1.2-4.5-1.9-9.2-2.2-13.9-.3-4.7,0-9.4.5-14h0s0,0,0,0c3.1-.7,6.5-.5,10.4.6,3.4.9,6.7,2.3,10,3.8,2.3,1,4.6,2.1,6.6,3.4,2.3,1.5,4,3.2,5.1,5.1,4.6-2.1,9.7-3.2,14.7-3.1,1.7,0,3.9.2,5.8,1.3.9.5,1.7,1.3,2.5,2.3,4.2,5.3,4.2,12.6,4.2,19.6,0,.7,0,1.5,0,2.2,0,6.6.7,13.2,1.3,19.6.5,4.9.9,10,1.2,14.9.6,15-1.1,29.9-5.2,44.3-.3,1.1-.7,2.2-1.4,3-1,1-2.4,1.2-3.8,1.3-1.3.1-2.7.2-4,.2ZM110.9,167.8h0c1.8,4.1,6.7,5.4,11.2,6.2,6.6,1.2,13.1,2.1,19.5,1.6,1.4-.1,2.8-.4,3.8-1.3.8-.7,1.1-1.8,1.4-2.9,4.1-14.4,5.8-29.3,5.2-44.3-.2-5-.7-10-1.2-14.9-.6-6.4-1.2-13.1-1.3-19.6,0-.7,0-1.5,0-2.2,0-7,0-14.2-4.2-19.5-.8-1-1.6-1.8-2.5-2.3-1.8-1.1-4-1.3-5.7-1.3-5-.1-10.1.9-14.7,3.1h0s0,0,0,0c-1.1-1.9-2.7-3.6-5.1-5.1-2-1.3-4.3-2.4-6.6-3.4-3.4-1.5-6.6-2.9-10-3.8-3.9-1-7.2-1.2-10.3-.6-.6,4.6-.8,9.3-.5,14,.3,4.7,1,9.3,2.1,13.9v.3c.4,1.4.8,2.8.6,4.2-.2,2.2-1.5,4.3-4.2,6.6-.4.4-.9.8-1.4,1.1-1.6,1.3-3.2,2.7-4.4,4.4-1.4,2.2-1.8,5.5.2,7.4h0s0,0,0,0c-3.2,5.8-5.2,12.3-5.8,18.9l3.6.6h0c-.8,4.7-1.1,9.4-.8,14.2,1.8.5,2,2.8,2.2,4.8,0,.3,0,.5,0,.7.3,2.9,1.9,5.6,4.3,7.2.1,0,.3.2.4.3.7.4,1.3.9,1.7,1.6.5.9.2,1.9,0,2.9-.2.8-.4,1.6-.2,2.4.5,1.9,2.4,3.4,4,3.8,2.2.6,4.5.1,6.5-.3h0s0,0,0,0c1.8,2.4,3.5,4.4,5.9,5.1,1.5.5,3.2.2,4.5-.7.9-.7,1.5-1.6,1.5-2.6v-.2Z"/>
    </g>
    <g>
      <path class="cls-1" d="M198.6,157.4c.4-.8,1.3-1.3,2.1-1.8,2.4-1.6,4.1-4.3,4.3-7.2.2-2.1.2-5,2.2-5.5.3-4.7,0-9.5-.8-14.2,1.2-.2,2.4-.4,3.6-.6-.6-6.6-2.6-13.1-5.8-18.9,1.9-1.9,1.6-5.2.2-7.4-1.4-2.3-3.7-3.8-5.7-5.6-2-1.7-3.9-3.9-4.2-6.6-.1-1.5.3-3,.6-4.4,2.2-9.1,2.8-18.6,1.6-27.9-6.9-1.5-14,1.5-20.4,4.4-4.5,2-9.2,4.3-11.7,8.5-4.6-2.1-9.7-3.2-14.7-3.1-2,0-4,.3-5.7,1.3-1,.6-1.8,1.4-2.5,2.3-4.7,5.9-4.2,14.2-4.2,21.8,0,11.6-1.9,23-2.4,34.6-.6,14.9,1.1,29.9,5.2,44.3.3,1.1.6,2.2,1.4,3,1,1,2.4,1.2,3.8,1.3,6.5.6,13.1-.4,19.5-1.6,4.4-.8,9.4-2.1,11.2-6.1.1,2.7,3.5,4.1,6.1,3.3s4.3-3,5.9-5.2c2.1.5,4.4.9,6.5.3,1.8-.5,3.6-2,4-3.8.4-1.7-1-3.6-.1-5.3Z"/>
      <path class="cls-1" d="M149.4,175.8c-1.3,0-2.7,0-4-.2-1.4-.1-2.8-.4-3.8-1.3-.8-.8-1.1-1.8-1.4-3-4.1-14.4-5.8-29.3-5.2-44.3.2-5,.7-10,1.2-14.9.6-6.4,1.2-13.1,1.3-19.6,0-.7,0-1.5,0-2.2,0-7,0-14.2,4.2-19.6.8-1,1.6-1.8,2.5-2.3,1.8-1.1,4-1.3,5.8-1.3,5-.1,10.1.9,14.7,3.1,1.1-1.9,2.8-3.6,5.1-5.1,2-1.3,4.3-2.4,6.6-3.4,3.4-1.5,6.6-2.9,10-3.8,3.9-1,7.3-1.2,10.4-.6h0s0,0,0,0c.6,4.6.8,9.3.5,14-.3,4.7-1,9.4-2.1,13.9v.3c-.4,1.3-.8,2.7-.6,4.1.2,2.2,1.5,4.3,4.2,6.6.4.4.9.8,1.4,1.1,1.6,1.3,3.3,2.7,4.4,4.4.7,1.2,1.2,2.6,1.2,3.9,0,1.5-.4,2.7-1.3,3.6,3.2,5.8,5.2,12.3,5.8,18.9h0s0,0,0,0l-3.6.6c.8,4.7,1.1,9.4.8,14.1h0s0,0,0,0c-1.8.5-2,2.7-2.1,4.7,0,.3,0,.5,0,.7-.3,2.9-1.9,5.6-4.3,7.3-.1,0-.3.2-.4.3-.7.4-1.3.8-1.7,1.5-.4.9-.2,1.9,0,2.8.2.8.4,1.6.2,2.4-.5,1.9-2.4,3.4-4.1,3.9-2.2.6-4.5.1-6.5-.3-1.8,2.4-3.5,4.4-6,5.1-1.5.5-3.3.2-4.6-.7-.9-.6-1.5-1.5-1.5-2.5-1.9,3.9-6.7,5.2-11.2,6-5.2.9-10.4,1.7-15.6,1.7ZM150.7,67.1c-.3,0-.6,0-.9,0-1.7,0-3.9.2-5.7,1.3-.9.5-1.7,1.3-2.5,2.3-4.2,5.3-4.2,12.5-4.2,19.5,0,.7,0,1.5,0,2.2,0,6.6-.7,13.2-1.3,19.6-.5,4.9-.9,9.9-1.2,14.9-.6,15,1.1,29.8,5.2,44.3.3,1.1.7,2.2,1.4,2.9,1,.9,2.4,1.2,3.8,1.3,6.5.6,12.9-.4,19.5-1.6,4.5-.8,9.4-2.1,11.2-6.1h0c0-.1,0,0,0,0,0,1,.6,1.9,1.5,2.6,1.3.9,3,1.2,4.5.7,2.4-.8,4.1-2.8,5.9-5.1h0s0,0,0,0c2,.5,4.3.9,6.5.3,1.6-.5,3.5-1.9,4-3.8.2-.8,0-1.6-.2-2.4-.2-1-.4-2,0-2.9h0s0,0,0,0c.3-.7,1-1.1,1.7-1.6.1,0,.3-.2.4-.3,2.4-1.6,4-4.3,4.3-7.2,0-.2,0-.5,0-.7.2-2,.3-4.3,2.2-4.8.3-4.7,0-9.5-.8-14.1h0s3.6-.7,3.6-.7c-.6-6.6-2.6-13.1-5.8-18.9h0s0,0,0,0c1.9-1.9,1.5-5.2.2-7.4-1.1-1.8-2.8-3.1-4.4-4.4-.5-.4-.9-.8-1.4-1.1-2.7-2.3-4-4.4-4.2-6.6-.1-1.4.2-2.8.6-4.2v-.3c1.2-4.5,1.9-9.2,2.2-13.9.3-4.7,0-9.4-.5-14-3.1-.6-6.5-.5-10.3.6-3.4.9-6.7,2.3-10,3.8-2.3,1-4.6,2.1-6.6,3.4-2.3,1.5-4,3.2-5.1,5.1h0s0,0,0,0c-4.3-2-9.1-3.1-13.9-3.1Z"/>
    </g>
  </g>
  <g>
    <path class="cls-5" d="M136.6,129.5c.1-.5,0-1.1.4-1.6,1.2-2.4,3-4.1,6-4.7-.7,0-1.3,0-1.8-.1-.5,0-.9-.2-1.5,0-1.2.3-1.4,1.3-1.8,2.2-.8.4-1.4.9-2.2,1.8.5-1.9,1.2-3.4,1.4-5.1-1.1,0-1.2,1.1-2.1,1.6.4-1.3.7-2.5.8-3.7.3.1.5.6.9,0,.4-.5.4-1.2.8-1.7.9.4-.2,1.1.3,1.6.8-1.2,1.3-3.1,1.1-4.5-.3-2.8-1.3-5.4-2.8-7.9-.3-.5-.5-1-.6-1.5.5-3.1-.2-5.8-2.2-8.2-.4-.5-.9-1.3-1.9-1-.3-.3-.2-.7-.2-1,2,.8,2.7,1.5,4.5,4.5,1.7,2.8,3,5.7,3.4,9.2,1.2-5.6-.5-10-4.1-13.9-3.6-3.9-8.2-6.2-13.3-7.5,2,1.4,3.8,3,5.3,5,1.6,2,2.6,4.1,2.4,6.7-.2,3-1.7,4.1-4.6,3.6-1.9-.3-3.7-.5-5.6-.1-.3,0-.4.2-.4.4-.4.2-.8.3-1.3.3-2.3,0-4.5.8-6.3,2.1-.9.6-1.8,1.1-2.7,1.6-.4-.3-.8-.2-1.2-.2-1.4,0-2.8.4-4.1.7-2.7.6-5,1.9-7.2,3.6,3.5-1.3,7.3-1.5,10.7-3,0,.7.3.7.9.5,2.2-.7,4.3-1.6,6.6-1.9.5,0,1.1-.3,1.5.2-1.9.8-3.8,1.5-5.8,2.1-3,.9-6,1.5-8.7,3.3-2.4,1.6-5.4,2-8,3.2-.2-.4-.6,0-.9-.2,1-.9,2.3-1.2,3.5-1.8-.6.2-1.2-.4-1.8-.2-1.7.6-2.9,1.6-3.9,3.1-.2.3.2.2.3.3-.5.7-1,1.4-2,1.9.3-3.4,3-5.1,4.8-7.4-.5-.3-.8.4-1.2,0,.5-.8,1.5-1.1,2.1-1.9-.8-.1-1.1.7-1.9.6.2-.5.3-.9.2-1.4.2-.6.9-.8,1.3-1.3-.2,0-.4,0-.6-.1-.2-1.1,1-1.4,1.3-2.4-1,.4-1.9.8-2.7,1.1,0-.3,0-.6-.3-.8,1.1-.8,2.4-1.2,3.7-1.4.8-.1,1.4-.4,2.1-.8,1.3-.8,2.9-1.1,4.5-.9.1.2-.5.3,0,.4.4,0,.9.1,1.4-.2-.3,0-.5-.2-.7-.2,0-.5,0-.7-.6-.9-1-.3-2,0-3.2-.3,1.9-1.5,4.2-1.7,6.2-2.6-.2-.1-.4-.2-.6-.3,0,0,0,0,0-.1,2.3-.2,4.6-.2,6.8.2-.6-.5-1.5-.4-2.1-1.1.1-.3.5-.2.7-.5.7,0,1,.6,1.5.9.8.6,1.9,1,3.1,1.2.9.1,1.7.4,2.8.6-.4,0-.7,0-.9.1,1.9,0,3.8.4,5.8.5-1.4-1-2.9-1.9-4.5-2.6,2-1,3.9-.4,5.9,0-2.4-2-5.1-3.6-7.9-5.2.4,1.2,1.2,2,1.7,3-1.5,0-3,0-4.6.3.3.2.5.4.7.6-1.3,0-2.6-.7-3.7.5-.1,0-.2,0-.3-.1.3-.3.2-.5-.2-.6-2.5-.8-4.9-1.9-7.6-1.2-.1,0-.3,0-.4,0,0,0,0-.2,0-.3.2-.2.6,0,.7-.4,0,0,0,0,0,0,0,0,0,0,0,0s0,0,0,0c.6,0,1.3.3,1.8-.4.4,0,.9.2,1.3.3.7.1,1.5.3,2.2,0,.6-.2-.3-.9.2-1.2.3-.2.8.3,1-.2,1.8.6,3.5,1.3,5.4,1.5.2-.4-.3-.5-.1-.8,0-.1,0-.3-.2-.3h0c-.2-1-1.1-1.5-1.8-2.1.3-.1.5-.3.5-.7.8-.1,1.3.8,2.2.5-.5-.7-.9-1.3-1.3-1.9.9-.3,1.7-.5,2.6-.8.8.1,1.7.3,2.5.4,0-1-1.1-1-1.4-1.7.8-.5,1.6,0,2.4,0,.4,0,.8.2.9-.4.3,0,.7.1,1.1-.1-.9-.6-1.6-1.1-2.4-1.7.6,0,1.2.2,1.8.4,1.1.3,2.2.9,3.3,1,0,0,0,.1,0,.2h0c0,0,0,0-.1-.1-.2-.3-.5-.5-.7-.8,1.7.3,3,1.2,4.5,2.4-.2-.5-.3-.9-.4-1.3-.8-2.4-2.3-4.5-3.7-6.5,0-.6.9-.8.7-1.5.6.5,1.1,1,1.7,1.5-.2-1.1-1.1-1.9-1.6-2.8,4.1,0,10.6,4.5,12.7,12.4,0,0-.1.1-.2.2-.6-.2-1-.8-1.7-.9-.8-.5-1.7-.9-2.9-.8.8.7,1.4,1.3,2,1.9,0,0,0,0,0,.1h0c4.9,5.9,7.7,12.7,9.5,20.3.5-4.4,2.3-8.2,4.2-12,1.8-3.8,3.8-7.5,7.3-10.2-.9-.4-2,0-4.7,1.9h0c0-.7.2-1.3.4-1.9,2-4.8,4.9-8.8,10.1-10.6.6-.2,1.3-.5,2-.3-.5.9-1,1.7-1.5,2.5-.2,0-.3.2,0,.4,0,0,.2-.1.3-.2.5,0,.7-.7,1.2-.8-.1.7.8.7.9,1.2-.1.6-.6.9-1,1.4-1.3,1.9-2.5,3.8-3,6.4,1.2-1.5,2.6-2.2,4.1-2.8,0,.4-.3.7-.5.8,0,0-.1.2-.2.2.1,0,.3,0,.4,0,1.5-.5,3-1.2,4.8-1.4-.8.9-1.9,1.1-2.5,1.9,0,.4-.3.5-.6.7h.8s0,0,.1.1c.8,0,1.5-.3,2.3-.4,1,0,.9.3.7.9-.3.5,0,.4.3.4.7,0,1.5,0,2.2-.1.8.6,1.8.2,2.7.7-.3.4-.8.7-1,1.3,0,.2-.3.4,0,.6.1,0,.4,0,.6-.1.4.2.8.5,1.2.7-.4.6-1,1-1.2,1.7-.2.4-.3.8-.6,1.1,1.7-.2,3.3-.9,5.1-1.1.2,0,.4,0,.6,0-.2.8-1.2.6-1.6,1.3,2-.2,3.9-.3,5.9-.5.2.4.6.5.9.4,1.1-.4,2,.2,2.9.7-2.4-.4-4.8-.4-7.1.5-1.6.7-3.3.8-5,.9-.4,0-.7.1-1-.2.3-.4.9,0,1.1-.7-1.7.1-3.3-.3-5,0,.9-1,1.6-1.8,1.8-3-2.7,1.6-5.3,3-7.6,5.1.8,0,1.3-.4,2-.4.6,0,1.2-.3,1.8-.2.6.1,1.2,0,1.9.5-1.5.9-2.9,1.9-4.5,2.6.3.1.3.3.6.2,1.8-.3,3.6-.5,5.4-.8,1-.2,2.3,0,3.2-.9.3-.3.9-.6,1.4,0,.3.3.2-.2.3-.3.7.3,1.3.2,2,0,1.8-.4,3.7-.1,5.7-.3-.2.7-.9.4-1.1.9,2.1.7,4.3,1.2,6.4,2.4-1.6.2-2.9,0-4.1.3-.6.1-.8.4-.8.9.6.8,1.2.7,1.8.1.5-.3,1,0,1.5,0,1.8.1,3.1,1.4,4.9,1.7,1.1.2,2.3.4,3.1,1.3-.5,0,0,.6-.5.6-.5-.2-1-.4-1.6-.7-.2,0-.4-.2-.6,0-.2.2.1.4.2.5.7.9,1.7,1.3,2.4,2.1h0c0,0,0,.1,0,.1-1-.3-1.9-.5-2.9-.8,0,0,0,.1,0,.2.5.3,1,.6,1.4.9l.6.4c.2.2.4.3.6.5.4.4.7.7,1.1,1.1-1.3.4-2.6.3-3.8-.6,1.5,1.7,2.9,3.4,3.9,5.5,0,0-.2.2-.3.2,0,0,0,0,0,0l-.2.2c-1.9-1.8-2.7-2.1-5-1.7,1.3.5,2.3.9,3.2,1.6.2.1.5.2.6.4.1.1.3.4.1.6-.2.2-.4,0-.6,0-2-1.1-4.3-1.8-6.5-2.6-1.2-.5-2.4-.9-3.4-1.8-.5-.5-1.1-1.1-2.1-.9-.2,0-.5-.3-.8-.5.7-.6-.3-.9-.2-1.3,3.1.7,6.2,1.1,9.1,2.2.1.2.3.2.4,0,0,0-.2-.2-.3-.3-3.3-2.6-7.1-3.7-11.2-4.1-.3,0-.7-.1-.8.4-.4.1-.6-.1-.9-.3-2.8-1.9-5.7-3.4-9.2-3.4-.3,0-.7,0-.9-.2-.1-.7-.7-.5-1.2-.6-1.9-.2-3.8.1-5.7.5-1.6.3-2.7-.4-3.1-2-.8-3.2.1-6,2.2-8.5,1.5-1.8,3.1-3.5,5.4-4.8-1.1,0-1.8.3-2.5.6-2.4.7-4.7,1.7-6.8,3.2-4.3,3.1-7.8,6.9-8.6,12.5-.2,1.6,0,3.2.2,4.9.3-2.8,1.5-5.3,2.8-7.7,1.4-2.4,3-4.6,5.3-6.6-.1.9-.2,1.6-.3,2.3-.3,0-.7-.6-.8-.3-.3.6-1.1.7-1.4,1.2-1.1,1.6-1.9,3.3-2,5.3,0,.9-.2,1.8.5,2.8.4-2.1.4-4.1,1.4-5.9-.1,1.4.2,2.8.7,4.1.6,1.9.8,3.9-.4,5.6-1.1,1.6-2.3,3.1-3.4,4.6,0-1.4,1-2.5,1.7-3.6.5-.7,1.1-1.4,1-2.4-.3,0-.4.6-.9.4h0c-.1-1.1-.2-1.6-.7-2.3-1.9,4.2-4.5,8.3-1.9,13.1.2-.8-.4-1.7.1-2.5.3.3.1.8.2,1.1.3,1.2.4,2.4,1.6,3.1.5.6.5,1.3.7,2.2-.7-.5-1-1.4-2.1-1.5.6,1.7,1.1,3.4,1.6,5.1-.7-.5-1.2-1.1-2.1-1.6.4,1.5.9,2.8,1.1,4.2-4.7-2.4-9.5-2.2-14.3-.2ZM99.7,106.8c2.4-.3,4.7-1.2,7-2.1-2.6,0-5,.4-7.1,1.9,0,0-.3,0-.2.2,0,0,.2,0,.4,0ZM162.5,94.2c2.3-1.5,4.3-3.3,6.9-4.4-.6-.3-1.1,0-1.6.1-2.5.6-4.5,1.7-5.4,4.3,0,0,0,0-.1.1,0,0,0,0,.1,0,0,0,0-.1,0-.2ZM181.9,100.2c-3.4,0-6.5.3-9.6.6-.3,0-.6,0-.6.4,0,.3.4.2.6.2,1.7,0,3.4.3,5.1.8,1.5.4,2.9,1.1,4.8,1.4-1.1-.7-1.8-1.2-2.6-1.7-.1,0-.3-.2-.4-.4,0-.3.3-.3.5-.4.7-.2,1.4-.3,2.2-1ZM115.6,101c-3.2-.7-6.4-.6-9.6-.7.6.3,1.2.5,1.8.8.5.2.6.4,0,.8-.8.5-1.6,1.1-2.4,1.6,3.4-.9,6.6-2.2,10.1-2.4ZM118.4,89.8c2.3,1.4,4.7,2.7,6.8,4.4-1.4-2.8-3.8-4.1-6.8-4.4ZM181,104.8c2.2.6,4.3,1.8,6.7,1.7-2-1.4-4.2-2.1-6.7-1.7ZM145.4,123.3c1.3.4,2.3,1.2,3.3,2.1.2.2.5.3.7.2.3-.2,0-.5,0-.7-.5-1.6-2.2-2.3-4-1.6ZM188.1,106.8s0,0,0,0c0,0,0,0,0,0,0,0,0,0-.1,0,0,0,0,0,0,0Z"/>
    <path class="cls-7" d="M113.8,93.1c-.2.3.3.4.1.8-1.9-.2-3.6-1-5.4-1.5-3-1.5-6.1-2.5-9.6-2.5.3-.9,1.2-1,1.8-1.6-.6-.4-1.3-.2-1.9-.3.4-.5,1.1-.3,1.7-.6-.8-.5-1.5-.5-2.2-.2-.4.1-.7.5-1.2.4h0c.8-.9,1.9-1.5,3-2.1-1.1-.8-2.2-.7-3.4-.7.9-1.1,1.9-2,3.1-2.9-1.3-.5-2.4.2-3.6.5.9-1.2,2.1-1.7,3.3-2.5-1.4-.2-2.6-.2-4.2.2,1.3-1,2.3-1.7,3.6-2.1-1.1-.6-2.2,0-3.3.1,0,0,0-.1-.1-.2.8-.7,1.5-1.5,2.8-2h-2.5c.7-.6,1.3-.9,2-1.2-.7-.7-1.5,0-2.3-.2,1.2-1.3,2.6-2.3,4.1-3.2-1.4,0-2.7.2-3.9.6-.1-.3.1-.4.2-.6,1-.9,2.1-1.7,3.5-2.2-1.3-.7-2.5-.1-3.7-.2.6-.4,1.1-.7,1.8-1.1-.7-.3-1.6.1-1.8-.9,0-.5,0-1,0-1.5,0-1,.2-1,1.1-.7,2.4.8,4.7,2,6.9,3.2,1.5.9,3.1,1.6,4.5,2.9-1.3-.2-2.5-.4-3.7-.1,5.5.9,13.9,5.8,15.1,9-7.2-5-12.1-6.7-15.1-6.6,1.7.5,3.5.9,4.8,2-2.1-.4-4.1-.2-6.1.2,2.2.7,4.4,1.4,6.2,2.9-1.9-.5-3.9-.2-5.8-.4-.6-.1-1.3-.3-2,.3h2c3.3.6,6.3,1.8,8.9,4.1-2.5-.5-5-.9-7.6-.7,2.6.9,5.2,1.7,7.6,3.4-2.8-.1-5.4-.2-8-.4,1.7.5,3.4.9,4.8,1.8,2,1.2,4.2,1.4,6.4,1.5-.9.3-1.7.5-2.6.8-1.1-.5-2.3-.3-3.4-.5-1.7-.3-3.5-.7-5.5-.4,2.9.9,5.6,1.3,8.1,2.3,0,.4-.2.5-.5.7-1.2-.6-2.6-.5-3.9-.4,2,.6,3.9,1.6,5.7,2.5,0,0,0,0,0,0,0,.1.2.2.2.3ZM99.9,71s0,0,0,0c0,0,0,0,0,0,0,0,0,0,0,0,0,0,0,0,0,0Z"/>
    <path class="cls-7" d="M190.9,82.2c-1.1-.5-2.3-.7-3.6-.4,1.2.7,2.3,1.6,3.3,2.6.2.2.4.4.6.6-1.4-.4-2.7-.2-4.1.5,1.3.2,2.2.9,3.1,1.6h0c-.2.4-.5,0-.7,0-.7-.1-1.4-.3-2.2-.1.2.5.9.1.9.8-.6,0-1.3,0-1.9.4.6.1,1.1.4,1.5.8.4.3.4.9,0,1-1.3,0-2.5.4-3.7.7-2,.4-3.8,1.2-5.5,2.2-1.7.2-3.3.8-5.1,1.1.3-.3.5-.7.6-1.1.4,0,.6-.2.9-.3,1.3-.8,2.7-1.5,4.2-1.9.1,0,.4,0,.3-.3-1.5-.2-2.9,0-4.1.9-.4-.2-.8-.5-1.2-.7,2.8-1.2,5.8-1.6,8.6-2.7-1.8-.2-3.6.3-5.3.5-.9,0-2-.1-2.8.5-.8-.5-1.9,0-2.7-.7.8-.4,1.6-.3,2.4-.3,1.1,0,2-.3,3-.8,1.6-.9,3.3-1.4,5-1.8.2,0,.5,0,.7-.4-2.6.3-5.2,0-7.8.4,2.1-1.6,4.6-2.4,7.4-3.4-2.7-.3-5,.6-7.6.6,2.6-2.1,5.3-3.2,8.2-3.9.8,0,1.6,0,2.5,0-.8-.7-1.7-.4-2.5-.4-1.7.1-3.5.2-5.2.4h0c1.7-1.5,3.9-1.9,6.1-2.8-2.1-.7-3.9-.3-6-.1,1.6-1.1,3-1.7,4.7-2.1-1.5-.3-3.8.4-7.5,2.2-2.4,1.1-4.7,2.5-6.9,4.1.3-1.3,3.8-4.4,6.5-5.9,2.6-1.4,5.5-2,8.3-3-1.2-.4-2.4.2-3.8,0,4-2.5,7.9-4.8,12.3-6.2,0,.2,0,.4,0,.6,0,.8.2,1.6,0,2.3-.3.8-1.3,0-1.9.6.9.2,1.6.5,2.4,1.3-1.5-.3-2.8-.7-4.2,0,1.8.4,2.9,1.6,4.2,2.7-1.6-.2-3-.8-4.7-.6,1.3.7,2.6,1.2,3.5,2.3.1.2.4.3.3.5,0,.3-.4.2-.6.2-.3,0-.7,0-1.3,0,.9.8,2,.8,2.7,1.7-1-.2-1.8-.3-2.8-.2,1,.4,1.8,1,2.7,1.7-1.3.4-2.4-.3-3.5.1,1.2.7,2.5,1.1,3.6,2.2-1-.1-1.8-.3-2.7-.4-.3,0-.8,0-.9.4-.2.5.4.4.6.5.7.5,1.4,1,2,1.6,0,0,0,0-.1.1Z"/>
    <path class="cls-5" d="M157.1,77.6c-1.7,1.7-3.5,3.3-5.2,5,.3-1-.1-2.1.8-2.8,0,0,.1-.2.1-.3-.1-.2-.2,0-.3,0-2.3,1.6-3.1,4.1-3.8,6.6-.8,2.9-1.4,5.8-1.8,8.8-1.9-3.7-2.4-7.6-2.7-11.6,0-.3.2-.7-.4-.7-.5,0-.4.4-.4.7-.2,3.9-.8,7.7-2.4,11.3,0,.1-.1.2-.3.5-.2-3.8-1.3-7.3-2.3-10.9-.4-1.3-.9-2.4-1.8-3.4-.6-.9-1.3-1.6-2.4-2.3.3.7.6,1,1,1.2.6.3-.1.4,0,.6.3.8.6,1.5.9,2.3-1.6-1.9-3.7-3.4-5.4-5.1.2,0,.6,0,.6-.2-.1-1.2.6-.6.9-.4.7.3,1.3.6,2.1.6.9,0,1.6.7,2.6.7,0,0,.1.1.2.2,0,0,0,0,0,0,0,0-.2,0-.3,0,0-.5-.2-.8-.7-.9,0-.2,0-.4-.2-.4h0c-1-1.1-2.3-1.9-3.5-2.9,0-.5.2-.3.5-.2,1,.6,2,1.2,3,1.8.9.6,1.8,1.3,2.9,2,0-1-.7-1.5-1.1-2.3,1.7.6,2.8,1.8,4.1,2.6,0-.7-.5-.9-.7-1.4,0-.2-.4-.4-.2-.7.3-.3.5,0,.7.3.6.6,1.1,1.4,1.9,2,0-.4,0-.7,0-1,.2.2.4.2.7,0,.6.7,1.1.2,1.5-.2.4-.4.7-.8,1.3-1-.1.8-1,1.1-.9,1.9-.2,0-.3,0-.3.2,0,0,0,.1.1.1.2,0,.2-.2.2-.3,1.1-.8,2.1-1.7,3.6-2.3-.4.9-1.2,1.1-1.3,1.8,0,0,0,0,0,.1,0,0,0,0,.1,0,.2,0,.4-.1.6-.3,1.7-1.1,3.4-2.2,5.2-3.2.4-.2.8-.4,1.2,0-1.2.9-2.4,1.7-3.5,2.8-.1.8-.9,1-1.2,1.5-.1.2-.3.4-.2.6.2.3.4.1.6,0,.6-.5,1.3-1,2.1-1.3.2,0,.5-.3.5,0,.2.8.6.2.8.1.6-.2,1.1-.6,1.7-.7.6,0,.8.2.8.7ZM133.9,78.7c0,0-.1,0-.2,0,0,0,0,0,0,0,0,0,0,0,0,0ZM138.8,77.9s0,0,0,0c0,.1,0,.1.1,0,0,0,0,0,0,0,0,0,0,0,0,0Z"/>
    <path class="cls-9" d="M148.4,140c.6-1.8,1.9-2.9,3.5-3.8,1.1-.6,1.9-1.7,2.3-3,.4-.4.6,0,.9.2.7.4,1.3,1,2.2,1.1,1.4.4,2.8.8,4.3,1.1.1.3.3.3.4,0,3,0,6.1-.1,9.1-.2.3.6.6.6.9,0,1.4-.2,2.7.2,4.1.2,0,.4-.5.5-.4,1-.2,0-.4,0-.6,0-.1-.3-.3-.3-.4,0-.2,0-.4,0-.7,0-.9-.1-1.7-.3-2.6-.4-.2,0-.4,0-.5.3-.7,0-1.4,0-2.2,0-.6-.2-1.2-.3-1.7,0-1.7,0-3.3.1-5,.2-.3-.6-.6-.6-.9,0-2.2.4-4.5.8-6.7,1,4.5.8,9,.9,13.5,1.2,0,.3.1.7.2,1-.9,0-1.7,0-2.6,0,0,0-.1,0-.2,0-3.1.1-6.2.5-9.6,1,.6.1,1,.2,1.4.3,3.2.2,6.4.5,9.6.7,3.9.3,7.7,1.1,11.4,2.2-.5.7.2.6.4.6.8,0,1.2.5,1.3,1.3-4.1-2-8.5-2.8-13.1-3-2.5-.1-5.1,0-7.6.2-1.3-.2-2.6-.4-4-.6,0,.1,0,.2,0,.3,1.3.3,2.7.5,4,.6,0,0,.2,0,.2,0,.3.4.6.7.6,1.2h-.4c-.8-.3-1.6,0-2.4-.2,0,0,0-.2-.1-.2,0,0,0,.2-.1.3,0,0-.1,0-.2,0,0,0,0,0,0,0,1.1.4,2.3.7,3.4,1.1,1.5.8,3.1,1.1,4.7,1.7h0c0,0,0,0,0,0-.1,0-.2,0-.4,0-3,.3-5.9-.1-8.8-.7-1-.2-1.8-.9-2.9-.6,0,0,0-.2.1-.2,0,0-.2,0-.2,0-.2.1.1.2,0,.3,2.2.7,4.4,1.9,6.7,2.3-1.5.3-3.1.2-4.6.2-.6-.8-1.5-.6-2.3-.8-1.9-.5-3.6-1.2-5.1-2.5-1.2-1.1-1.3-2.5-.4-3.8.4-.5,1-1,1-1.7ZM171.1,142.9c0,0,0,0-.1,0,0,0,0,0,0,0,0,0,0,0,.1,0Z"/>
    <path class="cls-7" d="M196.8,115c-1-2-2.3-3.8-3.9-5.5,1.2.9,2.5,1,3.8.6.6.6,1.3,1.1,1.9,1.7.3.3.6.6.9.9.7,1.2,1.7,2.4,2,3.9,0,0-.1.1-.2.2-1.2-1.1-2.5-2.1-3.9-3.1,0,0-.2,0-.3,0,0,.1,0,.2.1.2,0,.2.1.4.3.6,1.7,1.9,2.7,4.1,3.7,6.4.7,1.7,1,3.3.9,4.2-1.1-1.7-2.4-3.1-4.2-4.2.9,1.9,1.2,3.9,2.3,5.7,0,0,0,.1,0,.1.3.7.7,1.5,1,2.2,0,.1,0,.3.1.4.2.5.3.9.5,1.4,0,0,0,0,0,0,.1.3,0,.6.3.8,0,.1,0,.3,0,.4,0,.2,0,.4,0,.6,0,0-.2.1-.2.2-.4-1.3-1.3-2.1-2.2-3,0,0,0-.1,0-.2,0-.4-.2-.7-.5-1,0,0-.1-.2-.2-.2-.1-.3-.3-.5-.7-.5,0,.4.2.6.5.7,0,0,.1.1.2.2,0,.2,0,.4.1.5-.3,0-.8-.2-.4.5.2.4.5.9.7,1.3.7,2.2,1.3,4.4,1.3,7.1-.7-1.5-1.4-2.8-2.1-3.9.5-.5,0-.9-.1-1.3-.7-1.8-1.7-3.4-3-4.7-.6-.6-.7-1-.1-1.6.1.1.3.2.4.4.2.4.6.7,1,1,0,.1.2.2.3.4,0,0,.1,0,.2.1,0,0,0-.2,0-.2,0-.1-.2-.3-.3-.4-.2-.4-.5-.8-.9-1-1-1.2-2.2-2.2-3.4-3.2.3,0,.6.1,1-.3-.3-.2-.6-.4-.9-.6-.4-.4-1.2-.8-.8-1.3.3-.4,1,.3,1.4.7,1.2.9,2.4,1.9,3.7,2.8v-1.3c.4,0,.2-.3.2-.4-1.4-3.2-3.3-5.8-6.8-7,0,0,0-.1-.2-.4,1.9.3,3.6.6,5.2,1.5.1,0,.3,0,.4,0,0,0,0-.1-.1-.1-.2,0-.3,0-.3.2.3-.3-.5-.6,0-.9.5-.3.6.3.9.5.3.2.6.5,1,.7,0,0,0,0,0,0,0,.2.3.3.5.4.1.4.3,0,.5,0,.1,0,.2-.2,0-.3,0,0,0-.1,0-.2,0-1-.7-1.7-1.4-2.3ZM198.7,118.3c-.1-.1-.2-.2-.4,0l.3.2c0,0,0,.3.2.2.1,0,0-.2,0-.3Z"/>
    <path class="cls-7" d="M92.6,115.6c.3.1.6-.2.9.2-.3.3-.7.5-1,.8-.1,0-.3.2-.4.3.2.1.5.2.6,0,1-.3,2-.6,3-.9.2,0,.6-.2.7.1.1.3-.2.4-.4.5-1.6,1-3.1,2.1-4.1,3.8-.7,1.1-1.3,2.2-1.7,3.5,0,.3-.2.5-.3.8,1.2,0,1.7-1.1,2.6-1.4.3-.1.9-.8.8.3,0,.4.2,0,.3,0,.4-.2.9-.3,1.3-.1-.8,1-1.8,1.7-2.7,2.6-.6.4-1,1-1.4,1.7,0,0,0,.2,0,.2,0,0,.1,0,.2,0,.6-.2,1.1-.3,1.8-.5-.2.6-.6.9-.9,1.3-1.4,1.8-2.7,3.7-3.2,6-.7,1.2-1.5,2.4-1.9,3.7,0-.1-.2-.3-.3-.4.3-1.5.6-3,.9-4.5.2-1.5,1.2-2.8,1.1-4.6-1.3,1.3-2.4,2.5-3.1,4h0s0,0,0,0h0c-.1-1.9.7-3.5,1.5-5.1,1.1-2.1,1.9-4.4,2.8-6.5,0,0,0-.2,0-.3,0,0-.1,0-.2.1-1.6,1-3,2.4-4,4,.1-2.3,1.1-4.3,1.9-6.4.9-1.7,1.8-3.4,3-4.8,0,0,.2,0,.1-.2,0,0-.2,0-.2,0-1.6.4-2.5,1.8-3.6,2.9-.2,0-.2.4-.4.2-.3-.2,0-.4,0-.5.8-2.1,2.2-4,3.9-5.5.8-.7,1.6-1.5,2.6-2.1,0,.5,0,.9-.2,1.4.8.2,1.1-.7,1.9-.6-.5.8-1.6,1.1-2.1,1.9.5.3.7-.3,1.2,0-1.8,2.3-4.5,4-4.8,7.4,1-.5,1.4-1.2,2-1.9.6-.1.8-.7,1.3-.9.3,0,.7,0,.7-.4h0Z"/>
    <path class="cls-7" d="M192,145.7c-.8-.7-1.7-1.3-2.7-1.7-.4.2-.2.3,0,.5.9,2,3,2.4,4.6,3.4,2.4,1.5,4.7,3,7,4.6h0c.4.3.8.6,1.2.9.2.3.4.4.8.4.2.7.8,1,1.2,1.5.1.2.3.4,0,.6-.2.2-.3,0-.4-.2-.5-.4-.9-.9-1.6-1-1.9-1.9-4.2-3.2-6.5-4.5,0,0,0,0,0,0-1.8-1.2-3.6-2.2-5.7-3.2.2.9.7,1.5.6,2.4-1-1-1.6-2.2-2.9-2.6-.2-.3-.5-.4-.9-.4,0-.7-.6-.8-1.1-1-2.1-1-4.3-1.7-6.4-2.4-.2,0-.4-.2-.6-.3,3-.1,5.7,1,8.5,1.7-1.3-1-2.8-1.3-4.3-1.8-1.6-.5-3.1-1.2-4.7-1.5-1.6-.3-3.3-.5-4.9-.7-1.6-.2-3.3-.3-5-.4,0-.3-.1-.7-.2-1,1.9.2,3.8.3,5.8.6,3.9.5,7.9,1.1,11.5,2.8.2,0,.4.4.6,0,0,0,0-.3-.1-.4,1.2.2,1.9,1.2,2.9,1.8,0,0,.1,0,.2,0,0,0,0-.1,0-.2,0-.4-.7-1,.2-1.3,1.2,1,2.6,1.8,3.2,3.3,0,0-.1,0-.2.1Z"/>
    <path class="cls-7" d="M100,144.5c1.7-.5,3.4-1,5.2-1.4,1.3-.3,2.5-.6,3.9-.5-3.8,1.3-7.7,2.5-10.9,5.2-.3,0-.6,0-.8,0,.1-.9-.4-.4-.6-.2-2.1,1-4.1,2.1-6.1,3.4-1.5,1-3,2-4.5,2.9-.3.2-.7.4-.6.9-.9,0-1.3,1-2.2,1.1,0,0,0,0,0,0,.3-.9,1.3-1.2,1.7-2.1.9-.2,1.2-1.1,2-1.5,1-.6,1.9-1.3,2.9-2,2-1.1,3.9-2.4,6-3.4,1.2-.6,2-1.3,2.4-2.5.1,0,.3,0,.2-.1,0-.2-.2-.2-.3,0-1,.6-2,1.1-3.1,1.8,1-1.8,2.5-2.7,3.8-3.9.3-.2.7-.3,1-.5,0,.8-.8,1.2-1,2.1.7-.4,1.5-.5,1.9-1.1.4-.5.7-.3,1,0,1.3-.5,2.5-1,3.8-1.5,4.6-1.2,9.2-1.8,13.9-2v.9c-6,.1-11.8,1.5-17.5,3.5-.7.2-1.4.4-1.9,1.1-.1-.2-.2,0-.3,0,0,0,0,0,.1.1,0,0,.1-.1.2-.2ZM98.6,143.8s0,0,0,0c0,0,0,0,0,0,0,0,0,0,0,0,0,0,0,0,0,0Z"/>
    <path class="cls-7" d="M194.3,141.5c-.8-1.4-2.3-1.7-3.7-2.1-4.8-1.4-9.8-2.4-14.8-2.7,0-.4.4-.6.4-1,2.7,0,5.4.5,8.1.9.5,0,.9.1,1.4,0,.3.1.7,0,1,.3.2.2.6.6,1,.1,1.3.6,2.6,1.1,4.3,1.4-1.2-1.8-2.6-3.1-4.1-4.4,0-.3.2-.4.5-.5.5,0,.7.7,1.3.5,1.6.2,2.2,1.5,3,2.6-.6.3,0,.6,0,.9.7,1.3,1.8,2.2,3.3,2.5,0,0,.2,0,.3,0,0,0,0-.1-.1-.2,0-.5-.5-.9-.7-1.3.3-.1.3-.3,0-.5-.2-.2-.4-.2-.6,0-.1-.1-.2-.3-.3-.4.6-.3.3-.7,0-1.1-1.4-2.3-3.3-4.2-5.1-6.1-.3-.4-.8-.6-.7-1.3.1,0,.3,0,.4,0,.1.3.5.4.7.5h0c2.5,2,4.6,4.3,5.8,7.3,0,.2,0,.3.1.5.2,1.9.9,3.4,2.9,4,.3.1.6.4.9.5,0,0,0,.1,0,.2-1.4-.5-2.8-1-4.2-1.4,0,0-.2,0-.2,0,0,.1,0,.2.1.2.3.8.8,1.6.6,2.7-.7-.8-1-1.5-1.7-2l-.2-.2Z"/>
    <path class="cls-7" d="M185.6,63.1c.7-.2,1.4-.3,2.1-.5.3-.1.8-.3.9,0,.2.4-.4.4-.6.6-4.6,2.1-9.1,4.4-13.4,7.1-3.3,2.1-6.3,4.7-8.9,7.5-.6.6-1.2,1.3-1.8,2-.1-.5-1-.5-.9-1.2,2.7-3.3,5.6-6.3,9-8.8,4-2.9,8.4-5,13.1-6.4.2,0,.3-.2.5-.2Z"/>
    <path class="cls-7" d="M123.5,79.6c-3.8-4.3-8.1-7.9-13-10.9-3.9-2.3-7.9-4.4-12.1-6-.2,0-.4,0-.3-.3,1.3,0,2.6.4,3.9.7,8.2,2.5,15.1,6.9,20.8,13.4.5.5,1,1.1,1.5,1.6.2.7-.7.9-.7,1.5Z"/>
    <path class="cls-7" d="M190.4,160.6c-1.9-2.2-4.1-4.1-6.4-5.9-2.3-1.8-4.6-3.6-7.1-5.1-2.2-1.2-4.5-2.4-7-3-2.8-.9-5.6-1.7-8.6-1.7-.5,0-.8-.2-1.2-.3,0-.5-.4-.8-.6-1.2,4.2.7,8.3,1.5,12.3,2.8,2.9,1,5.7,2.4,8.4,3.9,1.4,1,2.7,2.2,4.1,3,0,0,0,0,0,0,0,0,0,0,0,0h0c-.2-1.1-.8-1.9-1.5-2.5,0,0-.1-.1-.2-.2,0-.4-.2-.6-.6-.7,0-.3-.3-.5-.5-.4-.3.3,0,.5.3.6.2.2.5.4.7.7,0,0,.1.1.2.2-.1.7-.4.2-.6,0-.6-.3-.6-1.1-1.3-1.3-.2-.2-.6-.3-.5-.7.4-.6.9,1.1,1.2-.2,0,0,0,0,0,0h0c.6-.2.9.1,1.2.5,1.4,1.7,2.7,3.4,3.4,5.5.3,1,1.4,1.4,2.1,2.1,1.3,1.5,2.7,3,3.6,4.9-.5-.4-.9-.8-1.4-1.3Z"/>
    <path class="cls-7" d="M128.1,144.5c-2.4.5-4.8.8-7.2,1.3-4.4,1-8.5,2.8-12.3,5.1,0,0,0,.2-.1.3,0,0,0,0,0,0-.2,0-.4,0-.2.2h0c0-.1-.1-.1-.3,0-2.5,1.8-5.1,3.6-7.3,5.7-.7,0-.9.6-1.3,1-.9,1-1.8,2-2.8,3,0,0-.3,0-.5.1.9-1.7,2.2-3,3.3-4.4.4-.4.9-.9,1.3-1.3h0c.6-.2.7-.6.9-1.1.6-2.1,1.9-3.8,3.2-5.5.3-.3.6-.4.9-.2,0,.1,0,.3,0,.4h0c-.6,0-.5.6-.6.9-1.2.9-1.6,2.2-1.9,3.5-.1,0-.3,0,0,.3,0,0,0-.2,0-.3.7-.3.9-1.1,1.5-1.4.9-.4,1.6-.9,2.2-1.6,0,0,.3,0,.3-.3h0c.4,0,.7-.3,1-.5,1.7-1,3.4-1.9,5.2-2.6,4.8-2,9.8-3,14.9-3.8,0,.3,0,.7,0,1Z"/>
    <path class="cls-7" d="M101.8,102.1c-1.6-.2-3.2.1-4.5.9-.7.4-1.3.7-2.1.8-1.3.2-2.6.6-3.7,1.4-.9.3-1.7.7-2.6,1,0,0-.1,0-.2-.1,2.4-3.5,5.7-5.9,9.6-7.4.4-.1.9,0,1.2-.3,1.6-.2,3.1-.3,4.7-.5.2.1.4.2.6.3-2,.9-4.3,1.1-6.2,2.6,1.2.3,2.2,0,3.2.3.6.2.7.4.6.9-.2,0-.4,0-.6,0Z"/>
    <path class="cls-7" d="M91.6,141.9c.3-.3.3-.6.5-1.1-1.5.5-2.9,1.1-4.4,1.5,0,0,0-.1-.1-.2.7-.4,1.3-.9,2-1.2,1.1-.4,1.4-1.2,1.4-2.2,0-.4.4-.6.2-1,0,0,0-.1,0-.2.1,0,.2,0,.2-.3,0-.1,0-.3,0-.4.5,0,.4-.5.6-.8,1.3-2.5,3-4.6,5.2-6.2.3-.2.6-.5,1-.5,0,.5-.3.9-.6,1.2-1.4,1.7-3,3.3-4.2,5.2-.5.8-1.2,1.5-1.1,2.5-.4.5-.8,1-1,1.7,0,0,0,.1-.1.2,0,0,.2,0,.2,0,2-.5,3-1.9,3.8-3.6.6-.4.7-1.2,1.5-1.3.7,0,.8-1.1,1.6-.9.2.2.4.3.5.5-1.2,1.1-2.3,2.3-3.3,3.5.4.4.8-.2,1.1,0,0,.9.8.4,1.1.8-.2,0-.4.2-.7.3-2.8.4-4.5,2.1-5.8,4.5,0,0-.1-.2-.2-.2.1-.5.2-1,.3-1.5,0,0,0-.1,0-.2Z"/>
    <path class="cls-7" d="M100.7,150.2c1.2-2.2,2.9-3.9,5-5.2.4-.2.8-.9,1.3-.1,0,0,.6-.1.9-.2,4-1.3,8.1-2.2,12.3-2.6.2,0,.4,0,.5,0,0,.3.1.7.2,1-2.7,0-5.3.6-7.9,1.1-2,.5-4.1,1.1-5.8,2.4-1.3.5-2.5,1-3.3,2.3-1.8,1.3-3.1,3-4.1,5.1,0-.7,0-1.4,0-2.1.5,0,.4-.6.6-.9,0-.2.2-.4.3-.7Z"/>
    <path class="cls-5" d="M119.2,163.7c-.6-.8-.5-1.6-.2-2.4.5-1.7,1.3-3.1,2.5-4.6.3.8-.2,1.3-.1,1.8-.1.8-.3,1.5-.5,2.6.5-1,.9-1.6,1.2-2.3.7-.6,1-1.7,2.1-1.8-.2.7-.4,1.3-.6,2-.5,2.3-.5,4.6.1,6.8.2.6,0,.7-.6.6-.8-.2-1.5-.7-2.2-1.1-.1,0-.3-.2-.4-.3l-.2-.2c-.3-.3-.6-.6-.9-.9,0,0-.1-.1-.2-.2Z"/>
    <path class="cls-5" d="M163.2,157.1c0-.2,0-.4.2-.4,1.3.9,2,2.2,3.1,3.6,0-.4,0-.6,0-.8.2-.5-.7-1.3,0-1.5.5-.2.6.8.9,1.2,1.3,1.6,1.5,3.6.6,4.9,0,0,0,0,0,0-1.3,1.2-2.7,2.1-4.4,2.5,0-.1,0-.3,0-.4.3-.3.2-.6.2-.9.6-2,.5-3.9,0-5.9-.1-.8-.2-1.5-.7-2.2Z"/>
    <path class="cls-7" d="M143.4,77.3c0,.3,0,.6,0,1-.8-.6-1.3-1.3-1.9-2-.2-.2-.4-.5-.7-.3-.3.2,0,.5.2.7.2.4.7.7.7,1.4-1.4-.9-2.4-2-4.1-2.6.4.9,1.1,1.3,1.1,2.3-1-.7-1.9-1.4-2.9-2-1-.6-2-1.2-3-1.8-.2-.1-.5-.3-.5.2-.6-.3-1.2-.6-1.9-.9,3.4-.6,6.4.3,9.3,1.9-.4-1.1-1.7-2.3-3-3h0c.4-.4.7,0,1,0,2.6.9,4.4,2.7,5.7,5.1ZM140.4,75.7h0s0,0,0,0h0Z"/>
    <path class="cls-7" d="M155.3,74.1c-.4-.4-.8-.2-1.2,0-1.8,1-3.5,2.1-5.2,3.2-.2.1-.4.2-.6.3h0c.1-.7.9-1,1.3-1.9-1.5.6-2.5,1.5-3.6,2.3h0c-.1-.8.8-1.1.9-1.9-.7.2-1,.6-1.3,1-.4.5-.9,1-1.5.2,1.3-2.5,3.2-4.3,6-5-.6.8-1.6,1.3-2.1,2.5,1.6-.6,3-1.3,4.6-1.6,1.6-.3,3.1-.3,4.7,0-.6.3-1.2.5-1.9.8Z"/>
    <path class="cls-7" d="M174.3,151.2c-.7-.8-1.4-1.7-2-2.5.3,0,.6.6,1,.8,4.1,1.5,5.9,4.9,6.8,8.9,0,.2,0,.3.1.5.1,1.5,0,3-1.1,4.6-.1-.7-.2-1.1-.3-1.5.3-.3.2-.7.1-1-.3-3.2-2.2-5.6-4.3-7.9,0,0,.2-.1.2-.2,1,.8,1.9,1.8,3,2.6-.4-2.1-1.9-3.2-3.6-4.2Z"/>
    <path class="cls-7" d="M110.1,151.9c1.1-1.2,2.6-1.8,4.1-2.5.2.1.3.2.5.3-.4.3-.8.7-1.1,1-1.3.1-1.7,1.4-2.6,2-.2.2-.9.4-.5,1,.4.6.6-.4.9-.2h0c-.4,1.3-1.2,2.3-1.7,3.5-.7,1.6-1.1,3.2-.8,4.9,0,.4-.1.8-.5,1.1-1.1-1.8-1.2-3.6-.7-5.6.6-2.1,1.4-4,2.6-5.7ZM110.4,154.4h0c0,0,0,0,0,0h0Z"/>
    <path class="cls-5" d="M108.8,162.1c-.3-1.7.1-3.3.8-4.9.5-1.2,1.3-2.3,1.7-3.6,0,0,.2-.1,0-.3,0,0,0,.2,0,.3-.4-.3-.5.7-.9.2-.4-.6.2-.8.5-1,.9-.6,1.3-1.9,2.6-2-.4,1-1.4,1.6-1.7,2.8.5-.3.9-.6,1.3-.8.4-.2.8-.4,1.1-.6.3-.1.7-.2,1-.4,0,0,0,0,.1.1-1.4,2.1-3.2,4-4.3,6.3-.9,1.2-1.3,2.7-2.2,3.8Z"/>
    <path class="cls-5" d="M174.7,153c2.1,2.3,4,4.7,4.3,7.9,0,.3.2.7-.1,1-.9-.8-1.2-2-1.9-2.9-.3-.3-.5-.7-.7-1-.5-.9-1-1.7-1.6-2.4-.2-.4-.4-.7-.7-.9-.4-.9-.9-1.6-1.5-2.3,0-.1-.5-.4,0-.5.7.4,1.5.8,2.2,1.1Z"/>
    <path class="cls-7" d="M157.1,77.6c0-.5-.3-.8-.8-.7-.6,0-1.1.4-1.7.7-.2,0-.6.7-.8-.1,0-.2-.4,0-.5,0-.8.3-1.5.8-2.1,1.3-.2.2-.4.4-.6,0-.2-.2,0-.4.2-.6.4-.5,1.1-.7,1.2-1.5.4.1.8,0,1.1-.2,2.5-1.3,5.1-1.8,8.2-1.9-1.6,1-2.9,1.9-4.1,2.9Z"/>
    <path class="cls-7" d="M109.3,96.3c.1,0,.2,0,.3.1,0,0,.1,0,.2,0-.1.3-.6.1-.7.5.5.6,1.4.6,2.1,1.1-2.3-.4-4.6-.4-6.8-.2-1.6-.2-3.1-.6-4.7-.3h-1.3c.7-.3,1.2-.5,1.7-.7,1.1-.3,2.2-.5,3.3-.8.1,0,.3,0,.4,0,.9.1,1.8-.1,2.6.1.8,0,1.6.8,2.5.2.2,0,.3,0,.5,0Z"/>
    <path class="cls-7" d="M136.6,78.4c-.9,0-1.7-.7-2.6-.7-.8,0-1.4-.3-2.1-.6-.3-.1-1-.7-.9.4,0,.2-.4.2-.6.2-1.2-1.1-2.5-2.1-4-3,2.9.1,5.7.6,8.2,2,.3.2.5.5.9.4,0,0,0,0,0,0-.2.3,0,.3.2.4.5,0,.7.4.7.9h0Z"/>
    <path class="cls-5" d="M116.4,158.1c.4-.6.9-1.2,1.3-1.8l.4-.4c.7-.5,1.3-1.3,2.4-1.7-1.6,2.6-2,5.2-2,8,0,.3,0,.4-.4.4-.7-1.3-1.1-2.7-.8-4.3-.7.3-.8,1-1.3,1.4,0-.6.4-1.1.4-1.6Z"/>
    <path class="cls-5" d="M169.9,161.8c-.2.3-.3.6-.5.9-.4-2.9-.5-5.8-2.4-8.5,1.1.3,1.6,1.1,2.3,1.5.4.4.8.8,1.1,1.2,0,0,0,0,0,0,.4.8.9,1.5,1,2.6-.4-.3-.5-.7-.9-.9,0,0-.2-.2-.3-.2-.1.2,0,.3,0,.5.3,1-.2,1.9-.4,2.9Z"/>
    <path class="cls-7" d="M107.5,92.5c-.5.4.4,1-.2,1.2-.7.3-1.5.1-2.2,0-.4,0-.9-.2-1.3-.3-1.6-.6-3.1-1.1-4.6-1.9,2.9-.4,5.6.1,8.4,1Z"/>
    <path class="cls-5" d="M171.5,155.2c-.7-.8-1.5-1.4-2.4-2-.3-.4-.7-.6-1.2-.7-.3-.4-.6-.6-1.1-.8,0,0,0,0,0-.1h0s0,0,0,0c.3,0,.6,0,.8.1,1.4.5,2.7,1.1,3.9,2.1.1,0,.2.2.4.3.4.5.9,1,1.3,1.6,0,.2.1.4.3.5.2.6.4,1.1.6,1.7,0,0,0,0-.1.1-.2-.2-.4-.3-.6-.5-.6-.8-1.3-1.5-2.1-2.1Z"/>
    <path class="cls-7" d="M91.9,106c.9-.4,1.7-.7,2.7-1.1-.3,1-1.5,1.3-1.3,2.4-1.9.3-3.3,1.3-5.2,2.4,1.1-1.7,2.4-2.7,3.8-3.7Z"/>
    <path class="cls-5" d="M152.2,151.3c0,0,0,.1,0,.2-.5.1-1.1,0-1,.8-.2,0-.4,0-.4-.3-.1-.8-1-.6-1.4-1.1-.3-.3-.7-.4-1.1-.8.6.1,1.2.2,1.9.4.7.2,1.4.5,2.1.7Z"/>
    <path class="cls-5" d="M106.8,155.3c-.1-1.3.8-2.2,1.3-3.3,0-.2.2-.4.3-.6,0,0,0,0,0,0,.1,0,.3,0,.2-.2,0,0,0,0,0,0,.2.3.5-.3.8,0-.8,1.3-1.6,2.7-2.4,4Z"/>
    <path class="cls-7" d="M154.9,152.4c1,.2,1.8.9,2.8,1.2,0,0,0,0,.1,0,.1.3.6.3.5.8-1-.4-2-1.2-3.2-.8-.1-.4-.2-.8-.3-1.2Z"/>
    <path class="cls-5" d="M97.3,147.8c.3,0,.6,0,.8,0-.2.4-.5.8-.9,1-.3-.4,0-.8.1-1.1Z"/>
    <path class="cls-7" d="M85.3,132.8s0,0-.1,0c0,0,0,0,.1,0,0,0,0,0,0,0Z"/>
    <polygon class="cls-5" points="151.3 83.4 151.3 83.4 151.3 83.3 151.3 83.4"/>
    <path class="cls-7" d="M95.7,78c0,.2-.2.2-.3.1-.1-.1,0-.2.2-.3,0,0,0,0,.1.2Z"/>
    <path class="cls-7" d="M136.7,72.2c0,0-.1-.1-.2-.2,0,0,.2,0,.2,0,.2.1,0,.2,0,.2,0,0,0,0,0,0Z"/>
    <path class="cls-7" d="M89,106.3c0,.1-.1.2-.2.1,0,0,0-.2,0-.2,0,0,.1,0,.2.1Z"/>
    <path class="cls-5" d="M106.6,155.6c0,0,.1-.2.2-.3,0,0-.1.2-.2.3Z"/>
    <path class="cls-5" d="M150.5,89.5c0,0,0,.1,0,.2,0,0,0,0,0-.1,0,0,.1,0,.2,0,0,0,0,0,0,0Z"/>
    <path class="cls-5" d="M136.9,89.2c0,0,0,.2,0,.3-.1,0-.1,0-.2-.1,0,0,.1-.1.2-.2Z"/>
    <path class="cls-7" d="M97.2,87.5s0,0,0,0c0,0,0,0,0,0,0,0,0,0,0,0Z"/>
    <path class="cls-9" d="M154.9,152.4c.1.4.2.8.3,1.2,1.1.6,1.9,1.6,2.7,2.4-.2,0-.3.2-.4.4-1-.4-1.8-1.2-3.1-1.4,1,1.3,2.3,2.2,2.9,3.7,0,0-.1,0-.1.1-1-.5-1.7-1.4-2.9-1.5,0-.3,0-.6-.4-.6-.5,0-.2.6-.5.8-.5,0-.9.2-1.4.2-.5,0-.2.3-.1.5.7,1.5,1.1,3,1,4.7-.6-1.3-1.9-1.9-2.7-3-.1-.1-.2-.3-.5-.2-.3,0-.2.3-.1.5,0,1.3.4,2.6-.1,3.8-.6-1-1.1-2-1.7-3-.1-.2-.2-.5-.5-.4-.4,0-.2.4-.2.6,0,1,0,2.1-.2,3.4-.7-1.5-1.2-2.7-1.8-4.2-.4,1.9-.8,3.6-1.3,5.5-.6-2-1-3.8-1.3-5.8-.7,1.6-1.3,3-2,4.6-.3-1.7-.2-3.1-.2-4.8-1.1,1.5-1.9,2.9-2.7,4.5,0-1.8-.2-3.4.3-5.1-1.5,1-2.3,2.3-3.3,3.4-.3-1.6.4-3.9,1.4-4.9,0,0,0-.1-.1-.1,0,0,0,0,0,0,0,0,.1,0,.2.1-1.4,0-2.2,1.1-3.2,1.7-.4.3-.7.7-1.3.8.6-1.3,1.6-2.4,2.3-3.6-.3-.3-.5.2-.8.1-.5,0-1,0-1.3-.4.4-.4.7-.7,1.1-1.1.2-.2.3-.4-.2-.4,0-.5-.2-1-.3-1.4,0,0,0-.2,0-.3.3-.3.7-.6.6-1.1h0c.2,0,.3,0,.4-.2.2-.3.6-.2.8-.3-.2,1.1.5.3.7.3h0c0,.3,0,.4.4.5.7.2,1.1-.3,1.6-.7,1,.2,1.8-.4,2.7-.5.6.2,1.2.3,1.8.2,1.6-.3,3.2-.2,4.9,0,.6,0,1.3.6,1.9,0,.9.2,1.7.4,2.6.6,0,.2.3.2.4.3,0,0,0,0,0,0l.7.3c.6,0,.7-.5.9-.9.8,0,1.4.5,2.2.6ZM133.1,155h-.2c0,.2.2.2.2.2.2,0,.4,0,.5-.2,0,0,0-.1,0-.2-.2,0-.3,0-.4.1ZM134,156.6c0,0,0-.1,0-.2,0,0,0,.1,0,.2,0,0,0,.1,0,.2,0,0,0,0,.1-.2Z"/>
    <path class="cls-5" d="M96.8,135.1c-.8.1-1,1-1.5,1.3-1.4,0-2,1.2-3,1.8,0-1,.6-1.7,1.1-2.5,1.2-1.9,2.8-3.4,4.2-5.2.3-.3.7-.7.6-1.2,0,0,0,0,0,0,0,0,.2-.2.2-.3,1.8-1.3,3.9-2,5.7-3.2,2-1.3,4.1-2.5,6.3-3.6-2.6.3-5-1.3-7.6-.5,2.9-1.3,5.8-2.3,8.9-2.5-2.7-.8-5.6-.4-8.3-.7h3.1s0,0,0-.1c-.8,0-1.6-.2-2.6-.3,2.6-1.4,5-2.5,7.8-2.6-2.7-.8-5.5-.7-8.5-.7,1-.5,1.9-.9,2.8-1,.4.7.9.2,1.3.1,1.5-.4,4,.4,5,1.6,0,0,0,0,0,0,0,0,0,0,0,0,.5,0,.8.4,1.1.8.9,1.1,1.7,2.2,2.5,3.3.5.6,1.1,1.1,1.3,1.9-.7.2-1.4,0-2.1,0,2.4,1.1,5,1.1,7.6,1.9-.7,0-1.2,0-1.7,0-.3,0-.7-.2-.7.3-1.3,0-2.5-.3-3.8-.5,1.6,1.2,3.4,1.7,5.4,1.5.9,0,2,0,2.8-.9,0-.4.4-.3.7-.4,1.1-.3,2.2-.6,3.3-1,.8-.3,1.7-.6,1.5-1.8.4-.4.9-.5,1.5-.6-.4,1.9-1.2,3.4-2.7,4.4-3.7,2.6-7.5,4.9-11.8,6.2-2.3.7-4.7.6-7.1.1-.2,0-.4,0-.6-.4,3.2-.7,6.4-1.4,9.7-3.1-3.7-.2-7.2.4-10.8-.8,2.2-.6,4.1-1.1,6-1.6-3-.5-5.8-.1-8.4,1.5-2.5,1.6-4.8,3.6-7,5.7-.9.9-1.4,2-2.2,2.9Z"/>
    <path class="cls-5" d="M192.7,136.7c-.8-1.1-1.5-2.4-3-2.6,0-.7-.4-1.1-.8-1.5-2.4-2.3-4.8-4.6-7.7-6.4-2.5-1.5-5.2-1.6-8-1.2.9.2,1.9.4,2.8.8,1,.3,1.9.6,3,.7-3.3,1.6-6.7.6-10.3.9,3.3,1.8,6.6,2.5,9.9,3-1.5.9-5.1,1.1-7.7.3-4.5-1.3-8.5-3.6-12.3-6.2-1.3-.9-2.1-2.2-2.5-3.7,0-.2-.2-.5,0-.6.3-.1.5.1.5.4-.2.2-.2.4,0,.5.6.5,1.1,1.1,1.9,1.5.4.4,1,.4,1.5.6.9.3,2,.2,2.8.7,0,.3.2.4.4.4,1.6.6,3.1.6,4.7.2,1.1-.3,2.1-.5,3.2-1.4-2.4.4-4.4,1.2-6.6.9.4-.5.8-.8,1.4-.9,1.4-.2,2.8-.5,4.2-.8,1.1.5,1.6-.2,2.2-1-.7.2-1.5.4-2.2.6-.5-.5,0-.8.3-1.1.4-.5.9-1,1.2-1.5,1.6-2.7,3.5-5,6.9-5.4.5,0,.6-.3.6-.7,1.6.3,3.1,1.2,4.8,1.5-1.8,0-3.6.4-5.5.2-.9-.1-2,.5-3,.9,2.9-.1,5.3,1.3,7.7,2.8h-2.7c.2.2.4.2.7.3-1.8.1-3.7.2-5.5.7,3,.2,5.7,1.3,8.8,2.3-1.4,0-2.5,0-3.6,0-.4,0-.9,0-.6.6-1.1,0-2.2,0-3.5,0,.4.2.6.3.8.4,3.8,1.9,7.4,4.2,11.2,6.3,0,0,.2.1.2.2h0c-.1.6.4.9.7,1.2,1.8,2,3.7,3.8,5.1,6.1.2.4.6.8,0,1.1-.7-.3-1.1-1.2-2-1.1Z"/>
    <path class="cls-9" d="M120.9,143c0-.3-.1-.7-.2-1,.3,0,.6,0,.8,0,.3,0,.6,0,.9-.2,2-.1,3.9-.2,5.9-.3.2,0,.4,0,.6-.1.9,0,1.9-.2,2.8-.3,0,0,0,0,.1,0,0,0,0,0-.1,0-3.1-.4-6.2-.7-9.3-.9-.2-.5-.4-.5-.7,0-.5,0-1,0-1.6,0,0-.3.2-.7.3-1,4-.2,8.1-.5,12.1-1.2-2.3-.3-4.5-.7-6.8-1,0-.2.2-.4-.1-.5-.4,0-.3.2-.3.5-.3,0-.7,0-1,0-.2-.6-1.3,0-1.3-1,.6,0,1.2,0,1.7,0,.3.3.6.3.9,0,0,0,.1,0,.2,0,0,0,0,.1,0,.2,0,0,0-.1,0-.2.1,0,.3,0,.4,0-.1.5,0,.7.5.5.3-.2.5-.5.8-.7.4-.2.8-.3,1.2-.3,0,0,0,0,.1.1,0,0,0-.2.1-.2.4-.2.9-.3,1.3-.5.7,0,1.1-.6,1.7-.8.1.9.8.2,1.1.3.2,0,.2.2.2.4,0,0,.1.2.2.3.8,1,1.7,2,2.9,2.5,1,.4,1.7,1,1.9,2.1,0,.3.3.6.4.9,0,.8.5,1.2,1,1.7,1,1.1,1,2.3,0,3.5-.9,1-2,1.8-3.3,2.2-1.5.5-3,.9-4.4,1.3-.2-.5-1.1,0-1.1-.9.7-.5,1.7-.6,2.5-1.4-3.2,1-6.2,1.4-9.2,1.3-.4-.3-1.1.5-1.3-.5,2.7-.5,5.1-1.8,7.8-2.7-1.1-.2-1.9.2-2.8,0,0-.3,0-.7,0-1,.4,0,.8-.4,1.3-.3.4,0,.8.2,1-.2,0-.1,0-.3-.1-.3-.4-.1-.8,0-1.1.4-.5,0-1,0-1.5,0-.1-.4,0-.9-.7-.8-.4,0-.3.5-.2.8-2,.1-3.9-.2-5.9,0ZM131.2,142.2c0,0-.2-.1-.2-.2,0,0-.1.2-.1.2,0,0,.1.1.2.2,0,0,.1-.1.2-.2ZM131.7,142.9c0,0,0-.1,0-.2,0,0-.1,0-.2,0,0,0,0,.1,0,.2,0,0,.1,0,.2,0ZM129,135.5s0,0,0,0c0,0,0,0,0,0,0,0,0,0,0,0,0,0,0,0,0,0Z"/>
    <path class="cls-7" d="M130.1,120.8c.3,1.2-.7,1.5-1.5,1.8-1.1.4-2.2.7-3.3,1-.3,0-.6,0-.7.4-1.5,0-2.9.2-4.3-.1,0-.5.4-.4.7-.3.5.1,1.1.1,1.7,0-2.6-.8-5.2-.7-7.6-1.9.7-.2,1.4.1,2.1,0-.2-.8-.8-1.3-1.3-1.9-.8-1.1-1.6-2.2-2.5-3.3-.3-.4-.6-.8-1.1-.8h0c-1-1.2-3.4-2-5-1.6-.4.1-.9.6-1.3-.1,2.5-1.2,5.1-1.8,7.9-1.5.7,0,1.2.2,1.4,1,1,6.1,5.7,8.7,11.7,7.3.7-.2,1.4-.4,2.2-.6-.1.4-.2.7-.3,1,.5.1.7-.5,1-.4Z"/>
    <path class="cls-9" d="M179.3,113.2c0,.4,0,.7-.6.7-3.4.4-5.3,2.7-6.9,5.4-.3.6-.8,1-1.2,1.5-.2.3-.8.6-.3,1.1,0,.1,0,.3,0,.4-1.4.3-2.8.6-4.2.8-.6.1-1.1.4-1.4.9-.6,0-1.2,0-1.7-.1-.9-.5-1.9-.4-2.8-.7-.5-.2-1.1-.2-1.5-.6.3-.5.5-1-.2-1.3-.1,0-.1-.3-.2-.5.3-.8.9-.4,1.4-.3,2.2.5,4.3.9,6.5.2,3.2-1,5.1-3.3,5.8-6.5.4-1.7.6-1.9,2.3-1.9,1.7,0,3.4.2,5.1.9Z"/>
    <path class="cls-7" d="M181.8,109.1c-.2.5.9.8.2,1.3-.3,0-.5-.3-.8-.3-2.2-1.7-4.8-2.6-7.5-3-1-.2-2.1-.6-3.1-.3-3.2-.5-6.4-.3-9.5.7-.7.2-1.5.5-2.2.8,0,0,0-.1-.1-.2.5-.8,1.5-1.2,2.2-2.1-.2-.2-.7,0-.8-.4,2.5-1.3,5.1-2.2,7.9-2.3.3.2.6.2.9.2,3.5,0,6.5,1.5,9.2,3.4.3.2.5.4.9.3,0,0,0,0,0,0,0,.3,0,.5.3.6.2,0,.2,0,.2-.2.5.7,1.4.9,2.1,1.3Z"/>
    <path class="cls-7" d="M127.4,118.3c-3.3,1.8-7.7.4-9.1-3.1-.5-1.4-.6-2.8-.2-4.2.3-1.1,1.9-1.7,3-1.2.4.2.2.4,0,.6-.3.9-.6,1.7-.4,2.6.4,2.2,2,3.5,4,3.3,1.7-.2,3-2,2.9-4,0-.4,0-.7-.2-1.2,1.1.4,1.8,1,2.1,1.9-.3.3-.3.7-.2,1,.5,1.2,0,2.1-.7,3-.4.5-.9.9-1.4,1.4Z"/>
    <path class="cls-7" d="M168.8,115.8c-1.8,3.1-5.7,4.3-8.8,2.4-.9-.6-2-1.3-2.3-2.5-.5-2-.2-3.9,2.2-4.7-.1,1.1-.3,2.2.3,3.3.8,1.4,2,2.1,3.5,1.9,1.5-.2,2.6-1.3,2.9-2.8.2-1,.2-1.9-.3-2.7-.5-1,0-1,.8-1,.3,0,.5,0,.7,0,.4.7.8,1.4,1.2,2,.7,1.4,0,2.7-.2,4Z"/>
    <path class="cls-7" d="M131.6,96.7c.9-.3,1.4.4,1.9,1,2,2.4,2.7,5.2,2.2,8.2,0,.1-.2.2-.2.3-.1-.4-.2-.8-.2-1.1-.1-1-.3-2-.5-3.1,0-.2-.1-.5-.4-.5-.3,0-.4.2-.4.4,0,1.4-.6,2.7-.8,4-.4,2.3.9,5,2.8,5.9,1.3,1.9,2.1,3.9,1.8,6.3-.4.5-.4,1.2-.8,1.7-.4.6-.6.1-.9,0,.2-2.5-.7-4.7-2.1-6.6-1.9-2.4-2.3-5.1-2.1-8,.2-2.9.5-5.7,0-8.6Z"/>
    <path class="cls-7" d="M108.7,107.3c1-.5,1.9-1,2.7-1.6,1.8-1.3,4-2.1,6.3-2.1.4,0,.9,0,1.3-.3,3.1,0,5.8.9,8.6,2.5-.7.3-1.2-.3-1.9,0,.5.6,1.3.7,1.8,1.3.5.5,1.4.7,1.4,1.6h0c-1.8-1.5-3.9-1.9-6-2.1-2.3-.2-4.7-.2-6.9.5-.4-.6-1-.3-1.5-.2-2.3.3-4.5,1.1-6.6,1.9-.6.2-.9.2-.9-.5.6-.4,1.2-.7,1.8-1.1Z"/>
    <path class="cls-7" d="M150.3,114.5c1.1-1.5,2.3-3,3.4-4.6,1.2-1.8,1-3.7.4-5.6-.4-1.4-.8-2.7-.7-4.1-1,1.8-.9,3.8-1.4,5.9-.7-1-.6-1.9-.5-2.8.1-2,.9-3.7,2-5.3.4-.5,1.1-.6,1.4-1.2.1-.3.4.4.8.3-.4,1.8-.1,3.6,0,5.4,0,2.2.4,4.3,0,6.5-.2,1-.6,1.9-1.2,2.8-1.2,1.8-2.5,3.6-2.9,5.9-.2,1.2,0,2.4,0,3.6-1.2-.7-1.3-1.9-1.6-3.1,0-.4,0-.8-.2-1.1,0-.9.2-1.7.5-2.6Z"/>
    <path class="cls-5" d="M157.3,134.5c-.9,0-1.5-.7-2.2-1.1-.3-.2-.5-.6-.9-.2,0-.7.3-1.3,0-2-.2-.6.5,0,.7-.2-.1-.5-.2-1.1-.4-1.6h0c.9.3,1.4,1,2.2,1.6.3.2.6.4,1,.5,0,0,.2,0,.2,0,0,0,0-.1-.1-.2-.6-1.2-1.6-2.2-1.8-3.7h0c1.4.6,2.7,1.5,4,2.3.3.2.7.4,1,.6,0,0,.1,0,.2,0,0,0,0-.1-.1-.2,0-.4-.5-.6-.4-1.2,2.2.9,4.1,2.3,6.6,2.9-2.1.8-3.9,1.6-6,2h1.6c-1.4.8-2.8.2-4.2.2-.5,0-1,0-1.4.3Z"/>
    <path class="cls-5" d="M132.2,133.5c-.6.2-1,.8-1.7.8-.9,0-1.8-.2-2.8,0-1.2.3-2.5.2-3.7-.3h2.2c-1.9-.6-3.8-1.3-5.8-2,2.4-.7,4.4-1.9,6.4-3.1.2.6-.4.8-.2,1.4,1.7-1.1,3.3-2.1,5.1-3.2-.5,1.5-1.3,2.7-1.8,4.2,1-.8,2-1.5,3.1-2.3,0,.7-.2,1.4-.4,2.1.3.2.4-.4.6-.2.3.2,0,.5,0,.8,0,.3,0,.6,0,.9-.3.3-.6.6-.9.9ZM129.6,131.5s0,0,0-.1h-.2c0,.1,0,.2,0,.2,0,0,.1,0,.2,0Z"/>
    <path class="cls-7" d="M136.6,129.5c4.8-2,9.6-2.2,14.3.2.6.7.9,1.7,1.3,2.5h0c-1,0-1.8-.9-2.8-1.1-1.3-.3-2.6-.3-3.9,0-1,.3-2,.3-3,0-2.5-.6-5-.5-7.3,1.3.2-1.3.8-2.2,1.4-3.1Z"/>
    <path class="cls-5" d="M88.7,134.4c.5-2.3,1.8-4.2,3.2-6,.3-.4.7-.7.9-1.3-.7.2-1.3.4-1.8.5,0,0,0,0-.1-.1.4-.6.7-1.3,1.4-1.7.2.5.5.1.8,0,.7-.3,1.3-.7,2-1,0,0,0,0,.1.1-.2.3-.4.5-.6.8,2.1-1,4.2-2.1,6.4-2.7-.4.9-.9,1.5-2.3,2.5-3.6,2.6-7.2,5.1-9.7,8.9,0,0-.1,0-.2,0Z"/>
    <path class="cls-5" d="M195.1,130.6c-2.6-2.7-5.8-4.7-8.6-7.2,0-.4.3-.3.5-.3,1.5.4,2.9,1,4.3,1.8.5.3,1,.6,1.7.9,0-.5-.4-.6-.5-.9,0,0,0-.1.1-.2,1,.5,2,.9,2.7,1.8-.5.6-.5,1,.1,1.6,1.3,1.3,2.3,3,3,4.7.2.4.6.8.1,1.3l-.4-.3c0,0-.1-.1-.2-.2,0,0-.2-.2-.2-.3h0c-.1-.4-.4-.6-.7-.8-.2-.2-.4-.5-.6-.7,0,0-.1-.1-.2-.2,0,0-.2-.2-.3-.3-.2-.4-.5-.6-.9-.8Z"/>
    <path class="cls-5" d="M138.7,134.9c2.7-1.9,7.3-1.9,10.1,0-.5.2-1,.3-1.5.5-1,.4-1.4,1.2-1.5,2.3,0,.3.4.8-.2.9-.4,0-1-.3-1-.8.1-1.1-.6-.7-1.1-.8-.8-.2-.6.5-.7.9,0,.6-.5.7-.9.7-.6,0-.3-.4-.4-.7-.1-1.6-1.1-2.6-2.9-3Z"/>
    <path class="cls-5" d="M94.9,123.2c-.5-.1-.9,0-1.3.1-.1,0-.3.4-.3,0,0-1.1-.5-.4-.8-.3-.9.4-1.4,1.4-2.6,1.4,0-.3.2-.5.3-.8,1-.5,1.3-1.7,2.2-2.4,0,0,.1.1.2.2-.1.9.3.5.6.3,1.2-.8,2.4-1.7,3.6-2.5,1.5-.9,3.1-1.4,5-1.7-1.6,1.5-3,2.9-4.5,4.3-.6.6-1.2,1.1-2.1,1.2-.1,0-.3,0-.2.2h0ZM92.4,122.2s0,0,0,0c0,0,0,0,0,0,0,0,0,0,0,0,0,0,0,0,0,0Z"/>
    <path class="cls-5" d="M197.1,123.4v1.3c-1.2-1-2.4-1.9-3.7-2.8-.4-.3-1.1-1.1-1.4-.7-.4.5.4.9.8,1.3.2.3.6.4.9.6-.4.4-.7.3-1,.3-1.7-.7-2.8-2-4-3.3-.9-.9-1.7-1.9-2.7-2.6h0c2,0,3.6.8,5.2,1.8,1.7,1,3.5,2,5.1,3.2.3.2.7.4.8.8Z"/>
    <path class="cls-9" d="M107.2,136.1c.4,0,.8-.1,1.1-.2.1,0,.3,0,.4,0,.4,0,.9,0,1.3,0,.4.4.7,0,1.1-.1.9,0,1.7-.2,2.6,0,.1.1.2,0,.2,0,1.5-.3,3-.2,4.5,0,.8,0,1.7-.2,2.5,0,.2.5.4.5.7,0,.5,0,.9-.2,1.4,0-.4.4-.8.5-1.4.6-.9,0-1.8-.3-2.6.2-1,0-2,0-3,0-.5-.6-.9-.6-1.3,0-.8,0-1.6.1-2.4.2-.5-.5-.9-.6-1.3,0-.2,0-.5,0-.7,0-.1,0-.2,0-.3.1,0,0-.1,0-.2,0-.2-.2-.4-.2-.6,0-.8,0-1.6.2-2.4.3q-.3-.4-.9.2c-.4,0-.7.3-1.1.2,0,0-.1,0-.2,0,0,0-.1,0-.2,0-.4-.3-.7-.4-.9.2-.7.2-1.4.4-2.2.4-.5-.2-.3-.6-.3-1,0,0,0,0,0-.1,1-.2,2.1-.4,3.1-.5,0,0,0,.2.1.2v-.2c.8-.2,1.5-.3,2.2-.3.4.2.7.1.9-.2Z"/>
    <path class="cls-5" d="M148.4,140c0,.8-.6,1.2-1,1.7-1,1.3-.9,2.7.4,3.8,1.5,1.3,3.2,2,5.1,2.5.8.2,1.7,0,2.3.8-1,.4-2.1,0-3.1-.2-1.9-.3-3.6-1-5.3-1.9-1.7-.9-2.4-2.6-1.9-4,.2-.5.4-.9.8-1.1.9-.6,1.8-1.1,2.7-1.6Z"/>
    <path class="cls-5" d="M138.1,148c-.8.1-1.5.4-2.2.7-1.2.4-2.5,0-3.7.4,0-.1,0-.3,0-.4,1.5-.4,3-.8,4.4-1.3,1.3-.4,2.4-1.1,3.3-2.2,1-1.1,1-2.4,0-3.5-.4-.5-1-1-1-1.7.8.5,1.7,1,2.5,1.5,1.6,1.1,1.7,3,.4,4.3-1,1.1-2.4,1.5-3.7,2.2Z"/>
    <path class="cls-5" d="M170.6,106.9c1.1-.4,2.1.1,3.1.3,2.7.4,5.3,1.3,7.5,3-.6.3-1.1-.2-1.6-.3-3.1-.7-6.1-1.8-9.1-3Z"/>
    <path class="cls-5" d="M187.7,137.1c-.4.5-.8,0-1-.1-.3-.3-.7-.2-1-.3-1.7-.9-3.5-1.8-4.8-3.3-.3-.4-.8-.6-.8-1.2h0c2.5.7,4.4,2.3,6.3,3.9.4.4.9.8,1.3,1.1Z"/>
    <path class="cls-5" d="M100.8,137s0,0,0,.1c-.1,0-.2-.2-.4-.3,0-.1,0-.2,0-.3,1.6-1.6,3.5-2.9,5.5-3.9.3-.2.8-.6,1.1-.1.2.3-.2.8-.6,1.1-1.4,1.3-2.9,2.5-4.8,2.9-.3,0-.7.1-.9.5Z"/>
    <path class="cls-5" d="M148.2,151.5c-.6.7-1.3.1-1.9,0-1.6-.2-3.2-.3-4.9,0-.6.1-1.2,0-1.8-.2,2.9-1.3,5.7-1.2,8.6.1Z"/>
    <path class="cls-7" d="M137.9,125.4c.5-.9.7-1.9,1.8-2.2.5-.2,1,0,1.5,0,.5,0,1.1,0,1.8.1-2.9.5-4.7,2.3-6,4.7,0-1,.5-1.7.8-2.6Z"/>
    <path class="cls-5" d="M127.4,118.3c.5-.5,1-.9,1.4-1.4.7-.9,1.1-1.8.7-3-.1-.3-.2-.7.2-1,1.4,1.9.1,4.9-2.2,5.3Z"/>
    <path class="cls-5" d="M136.8,151.9c-.4.4-.9.9-1.6.7.2-.4,0-.5-.4-.5,0,0,0,0,0,0,0-.2-.1-.3-.3-.4,1.4-.7,2.8-1.1,4.5-1.3-.8.7-1.7.8-2.3,1.5Z"/>
    <path class="cls-5" d="M168.8,115.8c.3-1.3,1-2.6.2-4-.4-.7-.8-1.4-1.2-2,.4,0,.8,0,1.1.3,1.3,1.4,1.2,4.3-.2,5.7Z"/>
    <path class="cls-7" d="M129.5,153.7c.1,0,.3-.2.4-.3,1-.4,2-.9,3-1.1,0,.5-.3.8-.6,1.1-1.3.1-2.4.8-3.6,1.1,0-.6.6-.5.8-.9Z"/>
    <path class="cls-9" d="M97.9,139c-.3-.4-1.2,0-1.1-.8.4,0,.8-.2,1.2-.3.5.2,1,.2,1.4,0,.5-.2.9,0,1.4.3-.9.4-1.9.5-2.9.8Z"/>
    <path class="cls-7" d="M158.1,120.8c0,.2,0,.4.2.5.8.3.5.8.2,1.3-.7-.3-1.3-.9-1.9-1.5-.2-.2-.2-.3,0-.5.5,0,1,.4,1.5.2Z"/>
    <path class="cls-7" d="M100.8,138.2c-.4-.3-.8-.5-1.4-.3-.5.2-1,.1-1.4,0,.8-.3,1.5-.7,2.3-1,0,0,0,0,0,0,0,0,0,.2,0,.2.1,0,.2,0,.2-.2h0c.1,0,.2.2.4.3,0,.4-.2.8.3,1,0,0-.1,0-.2.1,0,0-.1,0-.1,0Z"/>
    <path class="cls-7" d="M119,136.4c.8-.5,1.7-.1,2.6-.2.6,0,1-.2,1.4-.6h0s0,0,0,0c0,1,1.1.4,1.3,1-1.8,0-3.6-.1-5.4-.2Z"/>
    <path class="cls-5" d="M196.8,115c.7.6,1.3,1.3,1.4,2.3-.3,0-.6,0-.9,0,0,0,0,0,0,0,.2-.9-.7-1.2-1-1.9,0,0,.1-.1.2-.2,0,0,0,0,0,0,0,0,.2-.2.3-.2Z"/>
    <path class="cls-5" d="M99,134.7c-.2-.2-.4-.3-.5-.5,0,0,0,0,0,0,.3,0,.1-.2,0-.3.6-.5,1.1-.9,2.2-.8-.7.6-1.2,1-1.7,1.5Z"/>
    <path class="cls-5" d="M188.4,133.6c-.3,0-.4.2-.5.5-.6-.4-1.1-.8-1.7-1.2.8,0,1.6.1,2.2.7Z"/>
    <path class="cls-7" d="M132.2,133.5c.3-.3.6-.6.9-.9,0,.4.2.8.3,1.3-.4-.2-1,.6-1.1-.3Z"/>
    <path class="cls-7" d="M127.8,135.2c-.3.2-.5.5-.8.7-.5.2-.7,0-.5-.5.4,0,.9-.1,1.3-.2Z"/>
    <path class="cls-5" d="M196.8,127.9c-.4-.3-.8-.5-1-1,.2,0,.3,0,.3-.3.4.3.7.6.9,1,0,0-.1.1-.2.2Z"/>
    <path class="cls-7" d="M134.6,151.6c.2.1.3.2.3.4-.3,0-.9.9-.7-.3.1,0,.3,0,.4-.1Z"/>
    <path class="cls-7" d="M125.8,135.5c-.3.4-.6.4-.9,0,.3,0,.6,0,.9,0Z"/>
    <path class="cls-7" d="M172.1,135.4c-.3.6-.6.6-.9,0,.3,0,.6,0,.9,0Z"/>
    <path class="cls-7" d="M111.1,135.6c-.4.1-.7.6-1.1.1.4-.2.7-.2,1.1-.1Z"/>
    <path class="cls-7" d="M121.6,135.5c-.2.5-.5.4-.7,0,.2,0,.4,0,.7,0Z"/>
    <path class="cls-7" d="M107.2,136.1c-.3.3-.6.4-.9.2.3-.3.6-.2.9-.2Z"/>
    <path class="cls-7" d="M162.1,135.6c-.2.3-.3.2-.4,0,.1,0,.3,0,.4,0Z"/>
    <path class="cls-7" d="M104.2,136.5c0,0,0,.2-.1.2,0,0,0-.2-.1-.2,0,0,.1,0,.2,0Z"/>
    <path class="cls-7" d="M129.2,134.8c0,0,0,.2-.1.2,0,0,0,0-.1-.1,0-.1.1-.2.2-.1Z"/>
    <path class="cls-5" d="M192.5,125c-.1,0-.3,0-.2-.2,0-.1.3,0,.4,0,0,0,0,.1-.1.2Z"/>
    <path class="cls-5" d="M92.5,121.1c.1-.1.2-.2.3-.3,0,0,.1,0,.2.1l-.3.4c0,0-.1-.1-.2-.2Z"/>
    <path class="cls-7" d="M158.9,108.3c-.2,0-.3.2-.5,0,.1,0,.2,0,.4-.1,0,0,0,.1.1.2Z"/>
    <path class="cls-7" d="M133.3,152.1c-.1.2-.3.2-.4.2,0-.2.3-.2.4-.2Z"/>
    <polygon class="cls-5" points="186 117.6 186 117.5 186 117.6 186 117.6"/>
    <path class="cls-7" d="M128.9,108.8c0,0,0-.1.1-.2,0,0,0,0,0,0,0,0-.1,0-.2.1,0,0,0,0,0,0Z"/>
    <path class="cls-5" d="M92.8,120.8c0,0,.1-.2.2-.2.2,0,0,.2,0,.3,0,0-.1,0-.2-.1Z"/>
    <path class="cls-5" d="M92.3,121.3c0,0,.1-.1.2-.2,0,0,.1.1.2.2,0,0-.1.2-.2.2,0,0-.1-.1-.2-.2Z"/>
    <path class="cls-7" d="M94.8,123.2c0-.2.1-.2.2-.2,0,0-.2.2-.2.2Z"/>
    <path class="cls-5" d="M94.9,124.8c0,0,.2,0,.3,0,0,0,0,.1-.1.2,0,0,0,0-.1-.1Z"/>
    <path class="cls-5" d="M156.2,127.6c0,0-.1,0-.2,0,0,0,0,0,0-.1,0,0,0,0,0,.1h0Z"/>
    <path class="cls-5" d="M154.7,129.3s0,0-.1-.1c0,0,0,0,.1,0,0,0,0,.1,0,.2,0,0,0,0,0,0Z"/>
    <path class="cls-7" d="M98.5,129.2c0,0-.2.2-.2.3,0-.3.1-.2.2-.3Z"/>
    <path class="cls-5" d="M180.1,132.1s0,0-.1,0h0s0,0,0,0h0Z"/>
    <path class="cls-7" d="M152.2,132.3h-.1c0,0,0,0,.1,0,0,0,0,0,0,0Z"/>
    <path class="cls-7" d="M98.5,134c.1,0,.3.2,0,.3-.1,0-.1-.2,0-.3Z"/>
    <path class="cls-7" d="M133.7,134.5c0,0-.1-.2-.2-.3,0,0,.1.2.2.3Z"/>
    <path class="cls-7" d="M113.9,135.5c0,.1,0,.2-.2,0,0,0,.1,0,.2,0Z"/>
    <path class="cls-7" d="M126.1,135.4c0,0,0,.1,0,.2,0,0,0-.1,0-.2,0,0,0,0,.1,0Z"/>
    <path class="cls-7" d="M108.8,135.9c-.1,0-.2.1-.4,0,.1,0,.3,0,.4,0Z"/>
    <path class="cls-7" d="M100.5,136.6c0,.1,0,.2,0,.3,0,0,0,0,0,0,0,0-.1,0-.2,0,0,0,0,0,0,0-.2-.2,0-.3.2-.4Z"/>
    <path class="cls-7" d="M184.7,98.1c4.2,0,7.7,1.7,10.8,4.4,1.2,1,2.2,2.1,3.1,3.3.1.2.5.5.1.7-.2.2-.5.1-.7-.3-.5-.8-1.5-.7-2.2-1.1-.9-.9-2-1.1-3.1-1.3-1.8-.3-3.1-1.6-4.9-1.7-.5,0-1-.3-1.5,0-.6,0-1.2,0-1.8-.1,0-.5.1-.8.8-.9,1.3-.3,2.6,0,4.1-.3-2.2-1.3-4.3-1.7-6.4-2.4.3-.5,1-.2,1.1-.9-1.9.2-3.8,0-5.7.3-.7.2-1.3.3-2,0,.3-.2.7-.5,1.1-.8-.3,0-.5-.1-.7-.2,4-1.4,7.9-1.3,11.7.5-1.2,0-2.4,0-3.5,0-.4,0-.8,0-.8.6.2.1.3.1.5,0Z"/>
    <path class="cls-7" d="M179,92.8c3-1,6.1-1.7,9.5-1.2-1.8.9-3.5,1.5-5.2,2.1-1.9.2-3.9.3-5.9.5.4-.7,1.4-.5,1.6-1.3Z"/>
    <path class="cls-7" d="M199.1,109.3c-.8,0-1.4-.8-2.1-1.1-.4-.1-.8-.3-1.2-.5-.7-.8-1.8-1.2-2.4-2.1-.1-.2-.4-.3-.2-.5.1-.2.4-.1.6,0,.5.2,1,.5,1.6.7,1.1.8,2.4,1.4,3.3,2.6.2.3.5.5.5.9Z"/>
    <path class="cls-7" d="M166,86.3c2,0,3.9-1,6.2-.8-1,.9-2.1,1.3-2.9,2.2.3-.7.4-1-.7-.9-.8,0-1.5.4-2.3.4,0,0,.1-.1.1-.1,0-.1-.1,0-.2,0h-.8c.3-.2.6-.4.6-.7Z"/>
    <path class="cls-7" d="M145.4,123.3c1.8-.7,3.5,0,4,1.6,0,.2.3.5,0,.7-.2.1-.5,0-.7-.2-.9-.9-2-1.7-3.3-2.1Z"/>
    <path class="cls-7" d="M116.8,86.5c-.4-.2-.8-.5-1.3-.8,1.7-.3,3.2,0,4.7.5,0,.6-.5.4-.9.4-.8,0-1.6-.6-2.4,0Z"/>
    <path class="cls-7" d="M82.9,156c0-.2.2-.3.4-.2,0,0,0,0,0,0,0,.2-.3.2-.4.2h0Z"/>
    <polygon class="cls-7" points="82.8 156 82.8 156.1 82.9 156 82.8 156"/>
    <path class="cls-5" d="M183.1,77.8c.9,0,1.7-.3,2.5.4-.8,0-1.6,0-2.5,0,0-.1,0-.3,0-.4Z"/>
    <path class="cls-7" d="M177.9,78.1c.1.1,0,.2,0,.2,0,0-.1,0-.2,0,0,0,.2,0,.3-.1,0,0,0,0,0,0Z"/>
    <path class="cls-7" d="M191,82.1c0,0,.2,0,.1.2,0,0-.2,0-.2,0,0,0,0,0,.1-.1Z"/>
    <path class="cls-7" d="M168,79.6c0,0-.2,0-.2,0,0-.1,0-.2.1-.2,0,0,0,0,.1.1Z"/>
    <path class="cls-7" d="M167.9,79.4c0-.1,0-.3.3-.2.2.1,0,.2-.1.3,0,0,0,0-.1-.1Z"/>
    <path class="cls-5" d="M103.6,77.8c0,.1,0,.2,0,.3-.6,0-1.2,0-2,0,.8-.6,1.4-.4,2-.3Z"/>
    <path class="cls-7" d="M146,77.9c0,.1,0,.3-.2.3,0,0-.1,0-.1-.1,0-.2.1-.2.3-.2,0,0,0,0,0,0Z"/>
    <path class="cls-7" d="M136.6,78.4c0,0,.2,0,.3,0,0,0,0,0,0,0,0,0-.1-.1-.2-.2,0,0,0,0,0,0Z"/>
    <path class="cls-7" d="M138.8,77.9s0,0,0,0c0,0,0,0,0,0,0,0,0,0-.1,0,0,0,0,0,0,0Z"/>
    <path class="cls-7" d="M148.4,77.5s0,0-.1,0c0,0,0,0,0-.1,0,0,0,0,0,0Z"/>
    <path class="cls-7" d="M178.2,144.1c.5.2,1,.3,1.5.5.6.4,1.2.7,1.8,1.1.7.4.6-.2.6-.5,2.5,1.8,4.7,3.8,5.1,7.2-1.8-2.9-5.4-3.6-7.3-6.3,0-.8-.5-1.2-1.3-1.3-.3,0-.9,0-.4-.6Z"/>
    <path class="cls-5" d="M159.2,143.1c0,0,0,.2,0,.3-1.4,0-2.7-.3-4-.6,0-.1,0-.2,0-.3,1.3.2,2.6.4,4,.6Z"/>
    <path class="cls-7" d="M174,136.4c-1,0-2,0-3,0,0-.2.2-.4.5-.3.9.1,1.7.3,2.6.4Z"/>
    <path class="cls-7" d="M162.1,136.6c-.3,0-.6,0-.9,0,.3-.6.6-.6.9,0Z"/>
    <path class="cls-7" d="M168.8,136.4c-.6,0-1.2,0-1.7,0,.6-.3,1.2-.3,1.7,0Z"/>
    <path class="cls-7" d="M175.1,136.5c-.2,0-.3,0-.4,0,.2-.3.3-.2.4,0Z"/>
    <path class="cls-7" d="M171.1,142.9c0,0,0,0-.1,0,0,0,0,0,0,0,0,0,0,0,.1,0Z"/>
    <path class="cls-7" d="M157.3,144.5c0,0-.1,0-.2,0,0,0,0-.2.1-.3,0,0,0,.2.1.2Z"/>
    <path class="cls-7" d="M165.5,139.9c0,0-.1,0-.2,0,0,0,.1,0,.2,0Z"/>
    <path class="cls-5" d="M180.6,149.7c.7.2.8,1,1.3,1.3.2.1.5.6.6,0,0,0,0,0,.1-.1.7.7,1.3,1.5,1.5,2.4h0c-1.5-.9-2.8-2-4.1-3,.2-.1.5-.2.5-.5Z"/>
    <path class="cls-5" d="M182.1,145.1c0,.4.2.9-.6.5-.6-.4-1.2-.7-1.8-1.1.3-.4.7-.5,1.1,0,0,.2.3.2.5.2,0,0,0,0,0,0,0,.2.3.2.5.2h0c0,.2.3.2.5.2h0Z"/>
    <path class="cls-5" d="M181.4,148.7h0c0,0,0,.1,0,.1-.2,0-.5-.1-.5-.5,0,0,0,0,.1-.1l.4.5Z"/>
    <polygon class="cls-5" points="180.5 148 180.5 148 180.4 148 180.5 148"/>
    <path class="cls-7" d="M182.1,145.2c-.2,0-.4,0-.5-.2.2,0,.4,0,.5.2Z"/>
    <path class="cls-7" d="M181.7,144.9c-.2,0-.4,0-.5-.2.2,0,.4,0,.5.2Z"/>
    <path class="cls-7" d="M181.2,144.7c-.2,0-.4,0-.5-.2.2,0,.4,0,.5.2Z"/>
    <path class="cls-7" d="M132.2,153.7c0,.5.2,1,.3,1.4-1,.3-1.8,1.1-3.2,1.2.9-1.1,1.8-2,2.9-2.6Z"/>
    <path class="cls-7" d="M131.6,156.7c.3.4.8.5,1.3.4-.9.6-1.8,1.2-2.7,1.9,0,0-.1,0-.2-.1.3-.9.9-1.5,1.5-2.2Z"/>
    <path class="cls-7" d="M154.2,158.2c.7.8,1.5,1.6,1.7,2.8-.6-.7-1.4-1-1.9-1.7,0-.4.1-.7.2-1.1Z"/>
    <path class="cls-9" d="M154.2,158.2c0,.4-.1.7-.2,1.1-.3-.2-.7-.3-.9-.6.1-.3.3-.6.2-.9.3.2.5,0,.8,0,0,.1,0,.3,0,.4Z"/>
    <path class="cls-7" d="M153.4,157.8c0,.3,0,.6-.2.9-.4-.2-.8-.4-1.1-.7.5,0,.9-.2,1.4-.2Z"/>
    <path class="cls-5" d="M157.5,156.5c0-.2.2-.4.4-.4.3.3.7.6.7,1.2-.4-.2-.9-.2-1.1-.7Z"/>
    <path class="cls-7" d="M154.2,157.8c-.3,0-.5.1-.8,0,.3-.2,0-.8.5-.8.3,0,.5.2.4.6,0,0,0,.2,0,.3Z"/>
    <path class="cls-9" d="M157.3,158.9c.2,0,.2.2.1.4,0,0-.2-.2-.3-.2,0,0,0,0,.1-.1Z"/>
    <path class="cls-7" d="M130.2,159c0,0-.2.2-.3.2-.1-.2,0-.3.1-.4,0,0,.1,0,.2.1Z"/>
    <path class="cls-5" d="M124.2,156.9c0-.2,0-.4.2-.4,0,.2,0,.4-.2.4Z"/>
    <path class="cls-5" d="M188.6,143.7c-.9-.6-1.7-1.5-2.9-1.8-.4-.2-.6-.8-.4-.9.4-.2.8-.5,1.3-.2.8.5,1.7.7,2.4,1.5-.9.3-.2.8-.2,1.3,0,0,0,0-.1.1Z"/>
    <path class="cls-7" d="M192.1,145.6c.2.1.4.2.2.5h0c-.2,0-.3-.2-.4-.3,0,0,.1,0,.2-.1Z"/>
    <path class="cls-5" d="M189.2,144.5c-.2-.2-.4-.3,0-.5,0,.2,0,.3,0,.5Z"/>
    <path class="cls-7" d="M192.3,146.1c0,0,.1,0,.2,0,0,0,0,0,0,0,0,0-.1,0-.2-.1,0,0,0,0,0,0Z"/>
    <path class="cls-5" d="M184.7,98.1c-.2,0-.4,0-.5,0,.2-.5.4-.2.5,0Z"/>
    <path class="cls-7" d="M199.5,109.5c0,.1,0,.3-.2.3,0,0-.2-.2,0-.3,0,0,.1,0,.2,0Z"/>
    <path class="cls-7" d="M199.3,109.5c0,0-.2,0-.3,0-.2,0,0-.2,0-.2.2,0,.2.1.2.2Z"/>
    <path class="cls-5" d="M199.9,129.6c-.3,0-.4-.1-.6-.3,0-.2,0-.4-.1-.5l.2-.2c.3.3.5.6.5,1Z"/>
    <path class="cls-5" d="M198.9,128.5c-.2-.1-.5-.3-.5-.7.4,0,.6.2.7.5,0,0-.1.1-.2.2Z"/>
    <path class="cls-5" d="M197.7,117.8c0-.4.2-.3.5-.2.2,0,.2.2,0,.3-.1,0-.4.4-.5,0Z"/>
    <path class="cls-5" d="M197,128.3c0-.1-.2-.2-.3-.4,0,0,.1-.1.2-.2,0,.1.2.3.3.4h-.2Z"/>
    <path class="cls-5" d="M198.7,118.3c.1,0,.2.2,0,.3-.2.1-.2,0-.2-.2,0,0,0,0,.1-.1Z"/>
    <path class="cls-5" d="M198.6,118.5l-.3-.2c.2-.2.3,0,.4,0,0,0,0,0-.1.1Z"/>
    <path class="cls-5" d="M197.2,128.1c0,0,0,.2,0,.2,0,0-.1,0-.2-.1,0,0,.1,0,.2-.1Z"/>
    <path class="cls-5" d="M199.1,128.7c0,0-.1-.1-.2-.2,0,0,.1-.1.2-.2,0,0,.1.2.2.2,0,0-.1.1-.2.2Z"/>
    <path class="cls-5" d="M92,116c.1-.3.4-.4.7-.4,0,.5-.4.4-.7.4Z"/>
    <path class="cls-5" d="M91,127.6c0,0-.1,0-.2,0,0,0,0-.2,0-.2,0,0,0,0,.1.1Z"/>
    <path class="cls-5" d="M117,152.7c1-.5,1.9-1,3-1.1,0,0,.4-.2.1.2,0,0,0,.1-.1.2-.4.3-.8.5-1.1.9,0,0,0,0,0,0-2.1,1.5-3.8,3.3-5.9,5.2.6-2.5,2.2-3.9,4-5.3Z"/>
    <path class="cls-5" d="M114.7,149.8c-.2-.1-.3-.2-.5-.3q.5-.3,1.2-.4c0,.4-.4.6-.7.7Z"/>
    <path class="cls-5" d="M115.3,151.9c0-.1,0-.2.2-.1,0,0,0,.1,0,.2,0,0,0,0-.1-.1Z"/>
    <path class="cls-5" d="M113,158s0,0,0,0c0,0,0,0,0,0,0,0,0,0,0,0,0,0,0,0,0,0Z"/>
    <path class="cls-5" d="M115.6,149s0,0,0,0c0,0,0,0,0,0,0,0,0,0,0,0,0,0,0,0,0,0Z"/>
    <path class="cls-9" d="M119.5,139.9c0-.3,0-.6,0-.9.2-.2.4-.2.7-.2,0,.3,0,.7.2,1-.2,0-.5,0-.7,0Z"/>
    <path class="cls-7" d="M120.2,139.9c-.2-.3-.2-.6-.2-1h.4c0,.3-.2.6-.3,1,0,0,0,0,0,0Z"/>
    <path class="cls-7" d="M121.8,139.9c.2-.5.4-.5.7,0-.2,0-.4,0-.7,0Z"/>
    <path class="cls-7" d="M122.5,141.7c-.3.2-.6.2-.9.2.3-.2.6-.2.9-.2Z"/>
    <path class="cls-7" d="M129,141.3c-.2.2-.4.2-.6.1.2-.2.4-.1.6-.1Z"/>
    <path class="cls-7" d="M131.7,140.8s0,0,.1,0c0,0,0,0-.1,0,0,0,0-.1,0-.2Z"/>
    <path class="cls-5" d="M188.7,143.6c0,0,0,.1,0,.2,0,0-.1,0-.2,0,0,0,0,0,.1-.1Z"/>
    <path class="cls-5" d="M99.8,141.5c.6-1,1.7-.4,2.5-1.1.2,1-.5,1.4-.6,2.1-.3-.3-.6-.5-1,0-.4.6-1.2.6-1.9,1.1.2-.9,1-1.3,1-2.1ZM101.2,140.8s0,0,0,0c0,0,0,0,0,.1,0,0,0,0,0,0,0,0,0,0,0-.1Z"/>
    <path class="cls-5" d="M98.1,144.1c.1-.2.3-.1.3,0,0,0-.1.2-.2.1,0,0,0,0,0,0,0,0,0,0,0,0Z"/>
    <path class="cls-5" d="M98.6,143.8s0,0,0,0c0,0,0,0,0,0,0,0,0,0,0,0,0,0,0,0,0,0Z"/>
    <path class="cls-5" d="M195.5,138.6c-.3,0-.4-.3-.5-.5.2-.2.4-.2.6,0,.2.2.2.4,0,.5Z"/>
    <path class="cls-5" d="M174.3,151.2c1.6,1,3.1,2.1,3.6,4.2-1.1-.8-2-1.7-3-2.6,0-.6-.4-.9-.6-1.3,0,0,0-.2,0-.3Z"/>
    <path class="cls-5" d="M178,151.1c1.4.8,2,2.2,2.6,3.6,0,0-.1.1-.2.2l-2.5-3.5c0,0,0-.2.1-.3Z"/>
    <path class="cls-5" d="M180.8,155.1c0,0,0,.1,0,.2,0,0-.1-.1-.1-.2,0,0,0-.1.1-.2,0,0,0,.1.1.2Z"/>
    <path class="cls-5" d="M171.7,151.5s0,0,0,0c0,0,0,0,0,0,0,0,0,0,0,0Z"/>
    <path class="cls-5" d="M177.9,151.3c0,0,0-.2-.1-.2,0,0,.2,0,.3,0,0,0,0,.2-.1.3Z"/>
    <path class="cls-5" d="M182,149.8c.4.1.6.4.6.7,0,0,0,0-.1.2-.2-.2-.5-.4-.7-.7,0,0,.1-.2.2-.2Z"/>
    <path class="cls-5" d="M181.7,150.1c-.2-.2-.6-.3-.3-.6.2-.2.4.1.5.4,0,0-.1.2-.2.2Z"/>
    <path class="cls-5" d="M184.3,153.2h0c0,.1,0,.1,0,0,0,0,0,0,0,0h0Z"/>
    <path class="cls-5" d="M182.6,150.6c0,0,.1.1.2.2,0,0,0,0-.1.1,0,0-.1-.1-.2-.2,0,0,0-.1.1-.2Z"/>
    <path class="cls-7" d="M87.7,142.4c0,.2-.2.2-.4.1,0,0,.2-.2.3-.3,0,0,0,.1.1.2Z"/>
    <path class="cls-5" d="M105.6,149.3c.4.4.6,0,.8-.2.7-.5,1.5-.8,2.4-1.1-.3,1.1-1.9,1.2-1.8,2.5,0,0,0,0,0,0-.2,0-.2.1-.3.3-.6.7-1.3,1.2-2.2,1.6-.7.3-.9,1.1-1.5,1.4h0c.4-1.3.7-2.6,1.9-3.5.2-.3.7-.4.6-.9h0Z"/>
    <path class="cls-5" d="M107.2,146.5c.4.5.3.8-.2,1.2-.5.4-.8.9-1.3,1.2-.4-.2-.7,0-.9.2-.3,0-.7.2-.8-.3.7-1.3,2-1.8,3.3-2.3Z"/>
    <path class="cls-5" d="M103.1,153.6c0,0,0,.2,0,.3-.2-.2,0-.2,0-.3,0,0,0,0,0,0Z"/>
    <polygon class="cls-5" points="140.4 75.7 140.4 75.6 140.4 75.7 140.4 75.7"/>
    <path class="cls-7" d="M201.5,116.6c.2,0,.2.3.1.4-.2.2-.2-.2-.3-.2,0,0,.1-.1.2-.2Z"/>
    <polygon class="cls-5" points="110.4 154.4 110.4 154.4 110.4 154.4 110.4 154.4"/>
    <path class="cls-7" d="M111.4,153.7c0,0,0-.2,0-.3.2.1,0,.2,0,.3,0,0,0,0,0,0Z"/>
    <path class="cls-5" d="M106.4,96.1c.9-.5,1.7,0,2.5.2-.9.6-1.6-.2-2.5-.2Z"/>
    <path class="cls-7" d="M152.7,151.7c-.2.4-.2.9-.9.9,0-.4-.2-.8-.7-.3,0,0,0,0,0,0,0-.8.6-.7,1-.8.1.2.3.2.5.2Z"/>
    <path class="cls-5" d="M174.3,157.7c0,0,0,.2,0,.3-.1,0-.1,0-.2-.1,0,0,0,0,.1-.1Z"/>
    <polygon class="cls-5" points="174.5 158.3 174.6 158.3 174.6 158.4 174.5 158.3"/>
    <path class="cls-7" d="M133.1,155c.1-.1.3-.2.4-.1,0,0,0,.1,0,.2,0,.3-.3.2-.5.2,0,0,0-.2,0-.2Z"/>
    <path class="cls-5" d="M151.2,152.3c.5-.5.6,0,.7.3l-.7-.3Z"/>
    <path class="cls-7" d="M134.9,152.1c.3,0,.5.1.4.5-.3,0-.4-.2-.4-.5Z"/>
    <path class="cls-7" d="M134,156.6c0,0,0,.1-.1.2,0,0,0-.1,0-.2,0,0,0-.1,0-.2,0,0,0,.1,0,.2Z"/>
    <path class="cls-7" d="M170.3,122.4c0-.1,0-.3,0-.4.7-.2,1.5-.4,2.2-.6-.6.8-1.1,1.6-2.2,1Z"/>
    <path class="cls-7" d="M188.8,129.1c0,0,.2.1.2.2,0,0-.2-.1-.2-.2Z"/>
    <path class="cls-7" d="M132.2,149c-1.7-.4-3.3,0-5-.2,1.3-.3,2.6-.7,3.9-1,0,.8.9.4,1.1.9,0,.1,0,.3,0,.4Z"/>
    <path class="cls-7" d="M127.7,143c-.3.2-.6,0-.9,0-.2-.3-.3-.7.2-.8.6-.1.6.4.7.8Z"/>
    <path class="cls-7" d="M129.4,143.2c0,0-.1-.1-.2-.2.2-.5.6-.5,1.1-.4.1,0,.2.2.1.3-.3.4-.7.2-1,.2Z"/>
    <path class="cls-7" d="M131.2,142.2c0,0-.1.2-.2.2,0,0-.2-.1-.2-.2,0,0,0-.1.1-.2,0,0,.1.1.2.2Z"/>
    <path class="cls-7" d="M125.8,136.6c-.1,0-.3,0-.4,0,0-.3-.2-.5.3-.5.4,0,.2.3.1.5Z"/>
    <path class="cls-7" d="M131.7,142.9c0,0-.1,0-.2,0,0,0,0-.1,0-.2,0,0,.1,0,.2,0,0,0,0,.1,0,.2Z"/>
    <path class="cls-7" d="M129,135.5s0,0,0,0c0,0,0,0,0,0,0,0,0,0,0,0,0,0,0,0,0,0Z"/>
    <path class="cls-5" d="M179.2,107.4c.3,0,.4.2.5.4,0,.1,0,.3-.2.2-.2-.1-.3-.4-.3-.6Z"/>
    <path class="cls-5" d="M135.3,106.2v3.3c0,0-.2,0-.3,0-.3-.3-.5-.6-.9-1,0,1,.6,1.4,1,2,.3.4,1,.7.7,1.4-1.9-.9-3.2-3.6-2.8-5.9.2-1.3.8-2.6.8-4,0-.2.1-.4.4-.4.3,0,.3.3.4.5.2,1,.4,2,.5,3.1,0,.4.1.8.2,1.1Z"/>
    <path class="cls-7" d="M115.9,136.4c-.4,0-.9,0-1.3,0,.4-.6.9-.6,1.3,0Z"/>
    <path class="cls-7" d="M112.2,136.6c-.4,0-.9,0-1.3,0,.4-.6.9-.6,1.3,0Z"/>
    <path class="cls-7" d="M104.2,137.6c-.3.2-.6.2-.9.2.2-.5.5-.5.9-.2Z"/>
    <path class="cls-7" d="M106.6,137.1c-.2.3-.6.2-.9.2q.6-.5.9-.2Z"/>
    <path class="cls-7" d="M109.6,136.9c-.2,0-.4,0-.6,0,.2-.2.4-.2.6,0Z"/>
    <path class="cls-7" d="M110.2,136.7c0,.1-.2.2-.3.1.1,0,.2,0,.3-.1Z"/>
    <path class="cls-7" d="M104.6,137.5c0,0-.1,0-.2,0,0,0,.1-.1.2,0Z"/>
    <path class="cls-5" d="M100.3,136.9c0,0,.1,0,.2,0,0,.1,0,.2-.2.2,0,0,0-.1,0-.2Z"/>
    <path class="cls-5" d="M152.3,108.8s0,0,0,0c0,0,0,0,0,0,0,0,0,0,.1,0,0,0,0,0,0,0Z"/>
    <path class="cls-5" d="M166.1,87c0,0,.1-.1.2,0,0,0,0,0-.1.1,0,0,0,0-.1-.1Z"/>
  </g>
  <g>
    <rect class="cls-4" x="95.5" y="214.1" width="96.5" height="17.2" rx="5.1" ry="5.1"/>
    <path class="cls-1" d="M186.9,214.1c2.8,0,5.1,2.3,5.1,5.1v7c0,2.8-2.3,5.1-5.1,5.1h-86.3c-2.8,0-5.1-2.3-5.1-5.1v-7c0-2.8,2.3-5.1,5.1-5.1h86.3M186.9,209h-86.3c-5.6,0-10.2,4.6-10.2,10.2v7c0,5.6,4.6,10.2,10.2,10.2h86.3c5.6,0,10.2-4.6,10.2-10.2v-7c0-5.6-4.6-10.2-10.2-10.2h0Z"/>
  </g>
  <g>
    <path class="cls-6" d="M109.1,226.7h-3l-2.4-8.9h3.2l1,5h0l1-5h3.1l1.1,5h0l1-5h3.1l-2.5,8.9h-3l-1.3-5h0l-1.3,5Z"/>
    <path class="cls-6" d="M122.8,217.8h3.2l3.5,8.9h-3.3l-.5-1.3h-2.8l-.4,1.3h-3.2l3.5-8.9ZM124.4,220.9l-.7,2.2h1.4l-.7-2.2Z"/>
    <path class="cls-6" d="M135.5,227c-.4,0-.7,0-1.1,0-.3,0-.7-.2-1-.3-.3-.1-.6-.3-.9-.4-.3-.2-.5-.3-.8-.5l1.8-2c.2.2.5.4.8.6.3.2.7.3,1.1.3s.3,0,.5,0c.1,0,.2-.2.2-.3s0-.2,0-.2c0,0-.1-.1-.2-.2-.1,0-.3-.1-.5-.2-.2,0-.5-.2-.8-.3-.3-.1-.6-.2-.9-.4-.3-.1-.5-.3-.7-.5-.2-.2-.4-.4-.5-.7s-.2-.6-.2-1,.1-1,.3-1.4c.2-.4.5-.7.9-.9.4-.2.8-.4,1.2-.5.4-.1.9-.2,1.3-.2s1.2.1,1.8.3c.6.2,1.1.6,1.6,1l-1.9,1.9c-.2-.3-.4-.4-.7-.6-.3-.1-.6-.2-.8-.2s-.4,0-.5,0c-.1,0-.2.2-.2.3s0,.2.2.3c.1,0,.4.2.7.3.3.1.7.2,1,.4.4.1.7.3,1,.5.3.2.5.5.7.8.2.3.3.7.3,1.2s-.1,1-.3,1.4c-.2.4-.5.7-.8,1-.3.3-.7.5-1.2.6-.4.1-.9.2-1.3.2Z"/>
    <path class="cls-6" d="M148.3,223.3h-2.4v3.4h-3v-8.9h3v3h2.4v-3h3v8.9h-3v-3.4Z"/>
    <path class="cls-6" d="M155.4,217.8h6.1v2.5h-3.3v.8h3.1v2.3h-3.1v.8h3.5v2.5h-6.3v-8.9Z"/>
    <path class="cls-6" d="M165.5,217.8h3.8c.4,0,.9,0,1.3.1.4,0,.8.2,1.2.5.3.2.6.5.8.9.2.4.3.8.3,1.4s-.1,1-.4,1.4-.7.7-1.2,1l2.3,3.6h-3.4l-1.7-3.2h0v3.2h-2.9v-8.9ZM168.4,221.6h.6c0,0,.2,0,.3,0,.1,0,.2,0,.3-.1.1,0,.2-.1.3-.2,0,0,.1-.2.1-.4s0-.3,0-.4c0,0-.1-.2-.2-.2,0,0-.2,0-.3,0-.1,0-.2,0-.3,0h-.7v1.4Z"/>
    <path class="cls-6" d="M179.9,227c-.4,0-.7,0-1.1,0-.3,0-.7-.2-1-.3-.3-.1-.6-.3-.9-.4-.3-.2-.5-.3-.8-.5l1.8-2c.2.2.5.4.8.6.3.2.7.3,1.1.3s.3,0,.5,0c.1,0,.2-.2.2-.3s0-.2,0-.2c0,0-.1-.1-.2-.2-.1,0-.3-.1-.5-.2-.2,0-.5-.2-.8-.3-.3-.1-.6-.2-.9-.4-.3-.1-.5-.3-.7-.5-.2-.2-.4-.4-.5-.7s-.2-.6-.2-1,.1-1,.3-1.4c.2-.4.5-.7.9-.9.4-.2.8-.4,1.2-.5.4-.1.9-.2,1.3-.2s1.2.1,1.8.3c.6.2,1.1.6,1.6,1l-1.9,1.9c-.2-.3-.4-.4-.7-.6-.3-.1-.6-.2-.8-.2s-.4,0-.5,0c-.1,0-.2.2-.2.3s0,.2.2.3c.1,0,.4.2.7.3.3.1.7.2,1,.4.4.1.7.3,1,.5.3.2.5.5.7.8.2.3.3.7.3,1.2s-.1,1-.3,1.4c-.2.4-.5.7-.8,1-.3.3-.7.5-1.2.6-.4.1-.9.2-1.3.2Z"/>
  </g>
  <g>
    <g>
      <path class="cls-1" d="M58.8,148.6c1.8-3,4.3-5.3,6.3-8.1.4-.5.6-.3.9.1,1.6,2.2,3.2,4.5,4.7,6.7.7,1.1,1.4,2.2,1.7,3.5.9,3.2.2,5.9-2.3,8.1-2.4,2.1-5.2,2.5-8.1,1.2-2.9-1.4-4.4-3.8-4.5-6.4,0-2.2.4-3.5,1.4-5.1Z"/>
      <path class="cls-1" d="M65.3,161c-1.1,0-2.2-.3-3.3-.8-1.4-.7-2.5-1.6-3.3-2.7-.7-1.1-1.2-2.4-1.2-3.7,0-2.1.3-3.4,1.4-5.1,1-1.7,2.3-3.2,3.6-4.7.9-1.1,1.9-2.2,2.7-3.4.1-.2.3-.3.4-.3h0c.2,0,.4.2.5.4.7,1,1.4,2,2.1,3,.9,1.2,1.7,2.5,2.6,3.7.8,1.2,1.4,2.4,1.7,3.5.9,3.3.1,6-2.3,8.2-1.5,1.3-3.1,2-4.8,2ZM58.8,148.6h0c-1,1.8-1.4,3-1.4,5.1,0,1.3.5,2.6,1.2,3.7.8,1.2,1.9,2.1,3.3,2.7,2.9,1.3,5.7.9,8.1-1.2,2.4-2.1,3.2-4.9,2.3-8.1-.3-1.2-.9-2.3-1.7-3.5-.9-1.2-1.7-2.5-2.6-3.7-.7-1-1.4-2-2.1-3-.2-.3-.3-.4-.5-.4,0,0,0,0,0,0-.1,0-.2,0-.4.3-.8,1.2-1.8,2.3-2.7,3.4-1.3,1.5-2.6,3-3.6,4.7h0Z"/>
    </g>
    <path class="cls-3" d="M61.4,149.6c1-1.9,2.6-3.4,3.7-5.2.2-.3.4-.2.5,0,.9,1.4,1.9,2.9,2.8,4.3.4.7.8,1.4,1,2.3.5,2,.1,3.8-1.4,5.2-1.4,1.4-3.1,1.6-4.8.8-1.7-.9-2.6-2.4-2.7-4.1,0-1.4.2-2.2.8-3.3Z"/>
    <path class="cls-8" d="M61.4,149.6c1-1.9,2.6-3.4,3.7-5.2-.7,1.8-1.6,3.3-2.3,5.2-.4,1.1-.5,1.9-.5,3.3,0,1.7.6,3.3,1.6,4.1.4.3.8.5,1.1.5-.6,0-1.2-.2-1.9-.5-1.7-.9-2.6-2.4-2.7-4.1,0-1.4.2-2.2.8-3.3Z"/>
  </g>
  <path class="cls-10" d="M210.6,128c1.9,5.2,3.8,9.9,5.1,14.8.7,2.6-.2,5.2-2.2,6.6-1.9,1.3-4.6,1.3-6.5,0-2.1-1.4-3.1-3.9-2.3-6.5,1.6-4.9,3.6-9.7,5.8-14.8Z"/>
  <g>
    <g>
      <path class="cls-1" d="M220.1,84.7c-.1,2.6-1.6,5.1-4.5,6.4-2.9,1.3-5.7,1-8.1-1.2-2.5-2.2-3.2-4.9-2.3-8.1.4-1.3,1-2.4,1.7-3.5,1.6-2.3,3.1-4.5,4.7-6.7.3-.4.5-.6.9-.1,2,2.8,4.5,5.1,6.3,8.1,1,1.7,1.4,2.9,1.4,5.1Z"/>
      <path class="cls-1" d="M212.2,92c-1.7,0-3.4-.7-4.8-2-2.4-2.2-3.2-4.9-2.3-8.2.3-1.2.9-2.3,1.7-3.5.9-1.2,1.7-2.5,2.6-3.7.7-1,1.4-2,2.1-3,.2-.2.3-.4.5-.4h0c.1,0,.3.1.4.3.8,1.2,1.8,2.3,2.7,3.4,1.3,1.5,2.6,3,3.6,4.7,1,1.7,1.4,3,1.4,5.1h0c0,1.4-.5,2.6-1.2,3.7-.8,1.2-1.9,2.1-3.3,2.7-1.1.5-2.3.8-3.3.8ZM212,71.2h0c-.1,0-.3.2-.5.4-.7,1-1.4,2-2.1,3-.9,1.2-1.7,2.5-2.6,3.7-.8,1.2-1.4,2.3-1.7,3.5-.9,3.2-.1,6,2.3,8.1,2.4,2.1,5.2,2.5,8.1,1.2,1.4-.7,2.5-1.6,3.3-2.7.7-1.1,1.1-2.3,1.2-3.7,0-2.1-.3-3.4-1.4-5.1-1-1.7-2.3-3.2-3.6-4.7-.9-1.1-1.9-2.2-2.7-3.4-.1-.2-.3-.3-.4-.3Z"/>
    </g>
    <path class="cls-3" d="M217,83.9c0,1.7-.9,3.3-2.7,4.1-1.7.9-3.4.6-4.8-.8-1.5-1.4-1.9-3.2-1.4-5.2.2-.8.6-1.6,1-2.3.9-1.4,1.9-2.9,2.8-4.3.2-.3.3-.4.5,0,1.2,1.8,2.7,3.3,3.7,5.2.6,1.1.8,1.9.8,3.3Z"/>
    <path class="cls-8" d="M216.2,80.6c-1-1.9-2.6-3.4-3.7-5.2.7,1.8,1.6,3.3,2.3,5.2.4,1.1.5,1.9.5,3.3,0,1.7-.6,3.3-1.6,4.1-.4.3-.8.5-1.1.5.6,0,1.2-.2,1.9-.5,1.7-.9,2.6-2.4,2.7-4.1,0-1.4-.2-2.2-.8-3.3Z"/>
  </g>
  <g>
    <path class="cls-8" d="M223.9,58.3c.8-2.9-.4-6.8-.4-6.8,0,0,1.5,2.4,2,3.5.6,1.5,0,2.8-1.6,3.3Z"/>
    <g>
      <path class="cls-1" d="M228.1,56.4c0,2-1.2,3.7-3,4.3-1.9.7-3.9.1-5.1-1.4-1.2-1.5-1.3-3.6-.2-5.4,1-1.6,2.4-2.8,3.6-4.2.2-.2.4-.3.6,0,1.1,1.4,2.3,2.8,3.4,4.3.5.7.9,1.6.8,2.4ZM223.3,52c-1,1-1.7,2.3-2.1,3.6-.5,1.8.9,3.1,2.7,2.7,1.6-.5,2.3-1.8,1.6-3.3-.5-1.1-1.2-2.2-1.8-3.2-.3-.4-.3,0-.4.2Z"/>
      <path class="cls-1" d="M223.5,61c-1.4,0-2.7-.6-3.5-1.7-1.2-1.5-1.3-3.7-.2-5.4.6-1,1.5-1.9,2.3-2.8.5-.5.9-1,1.3-1.5.1-.1.2-.2.3-.2h0c.1,0,.2,0,.3.2.4.5.9,1.1,1.3,1.6.7.9,1.4,1.8,2.1,2.7.6.8.9,1.7.8,2.4,0,2-1.1,3.7-3,4.3-.5.2-1.1.3-1.6.3ZM223.7,49.5c0,0-.2,0-.3.2-.4.5-.9,1-1.3,1.5-.8.9-1.6,1.7-2.2,2.7-1.1,1.7-1,3.9.2,5.4,1.2,1.5,3.2,2,5.1,1.4,1.8-.7,3-2.3,3-4.3h0c0-.8-.2-1.6-.8-2.4-.7-.9-1.4-1.8-2.1-2.7-.4-.5-.9-1.1-1.3-1.6,0-.1-.2-.2-.3-.2h0ZM223.2,58.4c-.6,0-1.2-.2-1.6-.6-.5-.5-.7-1.3-.5-2.2.3-1.3,1-2.5,2.1-3.7,0,0,0,0,0-.1,0-.1.1-.2.2-.2,0,0,.1,0,.2.2.1.2.2.4.3.6.5.8,1.1,1.7,1.5,2.6.3.7.3,1.4,0,2-.3.6-.9,1.1-1.7,1.4-.2,0-.5,0-.7,0ZM223.5,51.7s0,0,0,0c0,0-.1.1-.1.2,0,0,0,0,0,.1h0c-1.1,1.1-1.8,2.3-2.1,3.6-.2.8,0,1.6.5,2.1.5.5,1.3.7,2.2.5.8-.3,1.4-.7,1.7-1.4.2-.6.2-1.2,0-1.9-.4-.9-.9-1.8-1.5-2.6-.1-.2-.2-.4-.3-.6,0-.1-.1-.2-.2-.2Z"/>
    </g>
    <path class="cls-3" d="M223.9,58.3c-1.8.4-3.2-.9-2.7-2.7.4-1.4,1.4-3.1,2.3-4.1,1.1,4,1,5.3.4,6.8Z"/>
  </g>
  <g>
    <path class="cls-8" d="M67.1,73.3c-.8-2.9.4-6.8.4-6.8,0,0-1.5,2.4-2,3.5-.6,1.5,0,2.8,1.6,3.3Z"/>
    <g>
      <path class="cls-1" d="M63.7,69c1.1-1.5,2.3-2.9,3.4-4.3.2-.3.4-.2.6,0,1.2,1.4,2.6,2.7,3.6,4.2,1.1,1.8,1,3.9-.2,5.4-1.2,1.5-3.3,2-5.1,1.4-1.8-.7-3-2.3-3-4.3,0-.8.3-1.7.8-2.4ZM67.3,66.8c-.6,1-1.3,2.1-1.8,3.2-.6,1.5,0,2.8,1.6,3.3,1.8.4,3.2-.9,2.7-2.7-.4-1.4-1.1-2.6-2.1-3.6-.1-.2-.2-.6-.4-.2Z"/>
      <path class="cls-1" d="M65.9,75.8c-1.8-.7-3-2.3-3-4.3,0-.8.2-1.7.8-2.4.7-.9,1.4-1.8,2.1-2.7.4-.5.9-1.1,1.3-1.6.1-.1.2-.2.3-.2h0c.1,0,.2,0,.3.2.4.5.9,1,1.3,1.5.8.9,1.6,1.7,2.3,2.8,1.1,1.8,1,3.9-.2,5.4-.9,1.1-2.2,1.7-3.5,1.7s-1.1,0-1.6-.3ZM67.4,64.5c0,0-.2,0-.3.2-.4.5-.9,1.1-1.3,1.6-.7.9-1.4,1.8-2.1,2.7-.6.8-.8,1.6-.8,2.4h0c0,2,1.1,3.6,3,4.3,1.9.7,3.9.1,5.1-1.4,1.2-1.5,1.3-3.6.2-5.4-.6-1-1.4-1.9-2.2-2.7-.5-.5-.9-1-1.3-1.5-.1-.1-.2-.2-.3-.2h0ZM67.1,73.4c-.8-.3-1.4-.8-1.7-1.4-.3-.6-.2-1.3,0-2,.4-.9.9-1.8,1.5-2.6.1-.2.2-.4.3-.6,0-.1.2-.2.2-.2,0,0,.1.1.2.2,0,0,0,0,0,.1,1.1,1.1,1.8,2.4,2.1,3.7.2.9,0,1.7-.5,2.2-.4.4-1,.6-1.6.6-.2,0-.5,0-.7,0ZM67.4,66.8c-.1.2-.2.4-.3.6-.5.8-1.1,1.7-1.5,2.6-.3.7-.3,1.3,0,1.9.3.6.8,1.1,1.7,1.4.9.2,1.7,0,2.2-.5.5-.5.7-1.3.5-2.1-.3-1.3-1-2.5-2.1-3.6h0s0,0,0-.1c0,0,0-.2-.1-.2,0,0,0,0,0,0,0,0,0,0-.2.2Z"/>
    </g>
    <path class="cls-3" d="M67.1,73.3c1.8.4,3.2-.9,2.7-2.7-.4-1.4-1.4-3.1-2.3-4.1-1.1,4-1,5.3-.4,6.8Z"/>
  </g>
  <polygon class="cls-2" points="130.2 179.1 132 203 143.5 203.5 151.8 199.9 152.5 192.1 151.6 185.4 141.9 179.5 130.2 179.1"/>
  <path class="cls-6" d="M236.4,212.7c0,0-.1,0-.2,0-2.8-.2-5.6-.4-8.4-.6-.6,0-1.2-.3-1.6-.8-.5.3-1,.5-1.6.5s0,0-.1,0c-3.1-.2-6.1-.3-9.2-.5-.9,0-1.7-.6-2-1.4-.1-.3-.2-.6-.3-1,0-.2,0-.3,0-.5-1.1,0-2.2-.1-3.2-.2-1.5,0-2.9-.1-4.2-.2,0,.2-.1.3-.2.5v.3c-.5,1.2-1.6,2-2.8,2s-.1,0-.2,0c-3-.2-6.1-.4-9.1-.6-.8,0-1.5-.5-1.9-1.1-.4-.7-.5-1.5-.1-2.2.4-1,.7-1.6.8-1.9-.2.2-.5.4-.7.6-1.2,1-2.4,1.7-3.4,2.3-1.1.6-2.2,1-3.3,1.4,0,0,0,0,0,0-2.4.8-4.8,1.2-7.1,1.2-1.6,0-3.2-.2-4.8-.6-4-.9-7.3-3-9.9-6.2,0,0,0,0,0,0-1.1-1.5-2-3.1-2.7-4.8-1.3,2.9-3.4,5.3-6.3,7.1,0,0,0,0,0,0-2.8,1.8-6.5,3-10.7,3.5,0,0,0,0,0,0-1.8.2-3.5.3-5,.3-.8,0-1.6,0-2.5,0s-1,0-1.5,0c0,0,0,0,0,0-.9,0-1.4,0-1.6,0s-.1,0-.1,0c-.2,0-.4,0-.6,0-1.3,0-2.6,0-3.9,0,0,0,0,0,0,0-.6,0-1.1-.2-1.5-.5-.4.3-.8.4-1.3.4h-.7s0,0,0,0c0,0,0,0-.1,0-.3,0-.6,0-1,0s-.4,0-.7,0c0,0,0,0,0,0-1.8,0-3.6,0-5.5,0-1.8,0-3.6,0-5.4,0-.4,0-.8,0-1.1,0s-.6,0-.8,0h-.6c-.7,0-1.4,0-2.1,0,0,0,0,0,0,0-.5,0-1.1-.2-1.5-.5-.4.4-1,.7-1.6.7-2.8,0-5.6.2-8.4.3,0,0,0,0,0,0-.7,0-1.3-.3-1.9-.7-.5-.5-.9-1.1-1-1.8,0,0-.5-5.2-.5-5.2-.3-3.5-.6-7.4-1-11.5l-.6-6.1c-1.8,8-3.4,15.8-4.9,23.7,0,.4,0,.7-.2,1-.4.7-1.1,1.2-2,1.2-3,.1-6.1.3-9.2.5,0,0,0,0-.1,0-1.2,0-2.3-.8-2.7-1.9-1.7-4.2-3.4-8.5-5.2-12.8-.7,4.4-1.4,8.8-2.1,13.2,0,.5-.2.9-.4,1.2-.4.5-1,.9-1.7,1-1.7,0-3.5.2-5.3.3-1.1,0-2.2.2-3.3.3,0,0-.1,0-.2,0-.4,0-.9-.1-1.3-.3-.4-.2-.8-.5-1.1-.8-.4-.4-.6-.9-.7-1.4-5.3-12.5-10.8-25.3-16.2-38-.3-.8-.3-1.6.2-2.2.4-.6,1.1-.9,1.9-.9s.1,0,.2,0c3.3.2,6.6.4,9.9.6,1.2,0,2.4.9,2.8,2,1.7,4.2,3.5,8.5,5.2,12.7.7-4,1.5-8.1,2.3-12.1.2-1.1,1.2-1.8,2.4-1.8s.1,0,.2,0h0c2.8.2,5.6.3,8.4.5.8,0,1.6.4,2.1.9.1.1.3.3.4.4.3.4.5.8.5,1.2,1.9,4.2,3.7,8.5,5.6,12.7,1-4.3,2-8.6,3-12.9.3-1.1,1.2-1.8,2.4-1.8s.1,0,.2,0c2.8.1,5.6.3,8.4.4.3,0,.6,0,.9.2.3-.1.7-.2,1.1-.2s0,0,.1,0c3,.1,6,.2,9,.3.6,0,1.2.2,1.7.6.4-.3,1-.5,1.5-.5s0,0,0,0c3.1,0,6.3.1,9.4.2,1.5,0,2.8,1.2,2.8,2.6l1,21.2c.5,0,.9,0,1.4,0,1,0,2,0,3,0,.1,0,.3,0,.4,0,.6,0,1.1,0,1.5,0,0,0,.7,0,.7,0,.1,0,.2,0,.3,0,0,0-.2-5-.2-5l-.4-11c0-1.4,0-2.7,0-3.7v-1.3c0-.7.2-1.3.7-1.8.5-.5,1.2-.7,1.9-.7s0,0,0,0c.9,0,2.1,0,3.9,0h0c2,0,3.2,0,3.9,0,1.1,0,2,0,2.6,0h.1c2.8,0,5,.1,6.8.4,0,0,0,0,0,0,2.6.4,4.7.8,6.4,1.5,0,0,0,0,0,0,2.4,1,4.6,2.3,6.3,3.8,0,0,0,0,0,0,1.6,1.5,2.8,3.3,3.6,5.2.9-2.1,2.3-4,4-5.7,3.2-3.1,7.4-5,12.2-5.6,1-.1,2-.2,2.9-.2,3.4,0,6.5.8,9.3,2.3,2,1.1,3.8,2.7,5.2,4.9,1.4,2.1,2.2,4.3,2.6,6.6.1.7-.1,1.5-.7,2.1-.5.6-1.3,1-2.1,1-2.9,0-5.9.1-8.9.2,0,0,0,0,0,0-1.2,0-2.3-.8-2.5-2,0-.2-.3-.6-1.3-1.1-.2-.1-.8-.3-1.9-.3s-1.1,0-1.7.1c0,0,0,0,0,0-1.3.1-2.3.6-3.1,1.3,0,0,0,0,0,0-.9.9-1.4,2.3-1.5,4.2,0,1.6.2,2.8.9,3.7.5.6,1.3,1.1,2.5,1.5.8.2,1.6.3,2.2.3s1.4-.1,2.1-.4c1.3-.5,2.3-1.3,3.1-2.6.5-.8,1.4-1.3,2.4-1.3s0,0,.1,0c2.8.1,5.6.3,8.3.4.6,0,1.1.2,1.5.6.6-1.5,1.1-3.1,1.7-4.6,0,0,0,0,0,0,1.4-3.7,2.8-7.4,4.1-10.9,0,0,0,0,0,0,.6-1.6,1.2-3.3,1.9-4.9.4-.9,1.2-1.6,2.2-1.8.2,0,.5-.1.7-.1,3.7-.1,7.4-.3,11.2-.5,0,0,0,0,.1,0,1.2,0,2.2.7,2.4,1.8.5,2,.8,3.7,1.1,5,0,0,0,0,0,0,.2.9.4,1.9.6,2.9l.9-7.5c.2-1.4,1.4-2.5,2.9-2.6h1.1c.9-.1,1.9-.2,2.8-.2,2.9-.2,5.8-.3,8.7-.5,3.4-.2,6.2-.4,8.7-.6,1,0,1.9-.1,2.9-.2h1c0,0,.1,0,.2,0,.7,0,1.3.2,1.8.7.5.5.7,1.2.6,1.9l-1.7,10.4c-.2,1.4-1.6,2.5-3,2.6h-1.1c-.9,0-1.9.1-2.8.1-.6,0-1.2,0-1.7,0l-4,25.6c-.1.7-.5,1.4-1.1,1.9-.5.4-1.2.7-1.9.7ZM223,184.8c.2,1.2.5,2.4.8,3.8,0,0,0,0,0,0,.7,3.7,1.5,7.5,2.1,11.3.2,1.3.4,2.4.6,3.3l2.4-18.2c-.3,0-.5,0-.8,0-1,0-1.9,0-2.7.1,0,0,0,0-.1,0h-1.1s0,0,0,0c-.4,0-.9-.1-1.2-.3ZM138.8,190.9c0,.4,0,.8-.2,1.2-.2,1-.6,2.6,0,4.3.3,1,1.9,1.5,3.3,1.5s.2,0,.3,0c.1-.4.6-2.1.5-4.2,0-2.8-1-4.9-2.8-6.4-.7-.6-1.1-1.4-1-2.3-.2,0-.3-.2-.5-.3.1.6.2,1.1.3,1.7.2,2.1,0,3.8,0,4.4Z"/>
  <path class="cls-1" d="M36.1,171.3c3.3.2,6.6.4,9.9.6,3,7.4,6,14.6,8.9,21.7,1.2-7.1,2.5-14.1,3.9-20.9,0,0,0,0,0,0,2.8.2,5.6.3,8.4.5,0,0,0,0,0,0,0,0,0,0,0,0,0,0,0,0,0,0,3.2,7.1,6.3,14.1,9.3,21,1.5-7,3.1-13.8,4.8-20.6,2.8.1,5.6.3,8.4.4-2.5,11-4.9,22.3-7.2,33.9,0,0,0,0,0,0h0c0,0,0,.1,0,.1-3.1.1-6.2.3-9.2.5-2.8-7.1-5.7-14.3-8.7-21.6-1.3,7.2-2.5,14.6-3.6,22.1h0s0,0,0,0h0c-1.8.1-3.6.2-5.3.3-1.1,0-2.2.2-3.3.3h0s0,0,0,0c0,0,0,0,0-.1-5.2-12.4-10.6-25.2-16.2-38.5M250.9,171.3c-.6,3.5-1.1,6.9-1.7,10.4-.1,0-.2,0-.3,0-.3,0-.5,0-.8,0-.9,0-1.9,0-2.8,0-1.5,0-2.9,0-4.4.1-.6,3.8-1.1,7.6-1.7,11.4-.6,3.8-1.2,7.7-1.7,11.5s-.4,2.5-.6,3.8l-.2,1.1v.4c-2.9-.2-5.7-.4-8.5-.6v-.3c0-.3.1-.7.2-1,.1-1,.3-2.3.5-3.7.5-3.7,1-7.4,1.5-11.2.5-3.7,1-7.3,1.5-11-1.2,0-2.4,0-3.6.1-1.1,0-2,0-2.8.1-.3,0-.5,0-.8,0,0,0-.2,0-.3,0,.4-3.2.8-6.4,1.2-9.6,0,0,.2,0,.3,0,.3,0,.5,0,.8,0,.9,0,1.9-.1,2.8-.2,2.9-.2,5.8-.3,8.7-.5,3.2-.2,6-.4,8.7-.6,1,0,1.9-.1,2.9-.2.3,0,.5,0,.8,0,0,0,.2,0,.3,0M217.6,173.3c.4,1.9.8,3.6,1.1,5,.7,3.3,1.5,7,2.4,11,.8,4.1,1.5,7.8,2.2,11.3.3,1.5.5,2.7.7,3.8.3,1.6.6,3.3.9,4.9-3.1-.2-6.2-.3-9.3-.5,0-.2-.1-.3-.2-.5,0-.3-.1-.6-.2-1,0-.4-.2-.8-.2-1.2-1.7,0-3.4-.2-5.1-.3-2,0-3.7-.2-5.3-.3-.3,0-.6,0-.9,0-.2.5-.3,1-.5,1.4-.2.4-.3.8-.4,1,0,.1,0,.2-.1.4-3.1-.2-6.1-.4-9.2-.6.7-1.6,1-2.4,1.1-2.7,0-.3.2-.6.3-1,.4-1,.8-2.1,1.3-3.5,1.3-3.6,2.6-7.2,3.9-10.8,1.5-3.9,2.9-7.6,4.1-10.9.6-1.6,1.3-3.3,1.9-4.9,0,0,.2,0,.2,0h0c3.7-.2,7.4-.3,11.1-.5M213.2,196.7c-.3-1.4-.6-2.7-.9-4.1-.4-2-.9-4-1.3-5.9-.7,1.9-1.4,3.8-2.2,5.7-.5,1.4-1.1,2.8-1.6,4.2.8,0,2.1,0,3.9.1.3,0,.7,0,1.2,0,.5,0,.8,0,.9,0M92,174.3c3,.1,6,.2,9,.3v.4c0,.3,0,.7.1,1,0,1.3.2,2.5.3,3.8.3,3.8.6,7.5.8,11.3.3,4.1.6,7.9.8,11.3,0,1.2.2,2.5.3,3.7v1.1c0,.1,0,.2.1.3-2.8,0-5.7.2-8.5.3v-.4c0-.4,0-.7-.1-1.1-.1-1.3-.2-2.5-.3-3.8-.3-3.5-.6-7.4-1-11.5s-.7-7.7-1-11.5l-.3-3.8v-1.1c-.1-.1-.1-.3-.1-.4M179.5,174.6c2.9,0,5.5.6,8,2,1.7.9,3.1,2.2,4.3,4.1,1.2,1.9,2,3.8,2.3,5.7-3,0-6,.1-8.9.2-.2-1-1-2-2.5-2.8-.8-.4-1.9-.6-3.2-.6-.6,0-1.3,0-2.1.1-2,.2-3.6.9-4.8,2.1-1.4,1.4-2.2,3.4-2.3,5.9,0,2.2.4,3.9,1.4,5.3.8,1.1,2.1,1.9,3.8,2.4,1,.3,2,.4,2.9.4s2.1-.2,3.1-.6c1.8-.7,3.3-1.9,4.5-3.7,2.8.1,5.5.3,8.3.4-.3,1.7-.9,3.2-1.7,4.6-.8,1.4-1.8,2.5-2.8,3.4-1.1.9-2.1,1.5-3,2-.9.5-1.9.9-2.8,1.2-2.1.7-4.2,1-6.3,1s-2.8-.2-4.2-.5c-3.5-.8-6.3-2.6-8.5-5.4-2.3-3-3.4-6.5-3.3-10.7.1-4.8,1.7-8.7,4.9-11.8,2.8-2.7,6.3-4.3,10.5-4.8.9-.1,1.7-.2,2.6-.2M104.3,174.7c3.1,0,6.2.1,9.3.2,0,.1,0,.3,0,.4,0,.3,0,.7,0,1,0,1.2.1,2.4.2,3.6.2,3.7.4,7.4.6,11.1.1,2.6.3,5.1.4,7.7.5,0,.9,0,1.4,0,.9,0,1.8,0,2.6,0s2,0,3,0c.1,0,.2,0,.4,0,.6,0,1,0,1.5,0,.2,0,.3,0,.5,0,0,0,.1,0,.2,0,0,2.8.2,5.6.2,8.4,0,0-.1,0-.2,0-.2,0-.3,0-.5,0-.3,0-.7,0-1.1,0-.2,0-.5,0-.7,0-1.8,0-3.7,0-5.5,0-1.8,0-3.7,0-5.5,0-.4,0-.7,0-1,0s-.6,0-.8,0c-.2,0-.3,0-.5,0,0,0-.1,0-.2,0-.7,0-1.4,0-2.1,0,0-.1,0-.2,0-.3,0-.3,0-.7,0-1,0-1.2-.2-2.5-.3-3.7-.3-3.4-.5-7.1-.8-11.2-.3-3.7-.5-7.5-.8-11.2,0-1.2-.2-2.5-.3-3.7v-1c0-.1,0-.2,0-.3M126.6,175.1c.9,0,2.2,0,4,0,1.8,0,3.1,0,4,0,1.1,0,1.9,0,2.5,0s0,0,0,0c2.6,0,4.7.1,6.4.3,2.4.3,4.3.8,5.8,1.3,2.1.9,4,2,5.5,3.3,3.5,3.4,4.8,8,3.8,13.9-.7,4.2-2.8,7.5-6.4,9.7-2.5,1.6-5.8,2.6-9.7,3.1-1.7.2-3.3.3-4.8.3-.7,0-1.6,0-2.5,0s-1,0-1.5,0c-.8,0-1.4,0-1.7,0s0,0-.1,0c0,0,0,0,0,0-.2,0-.3,0-.4,0-1.4,0-2.8,0-4.2,0,0-.1,0-.3,0-.4,0-.3,0-.7,0-1,0-1,0-2.2,0-3.6-.1-3.7-.2-7.3-.4-11-.1-3.7-.2-7.4-.3-11,0-1.4,0-2.6,0-3.6v-1c0-.1,0-.3,0-.4M133.2,179.9c3.9,4,3,10.8,3,10.8,0,.6-1.1,3.2,0,6.4.7,2.2,3.3,3.4,5.8,3.4s2.2-.2,3.2-.7c3.2-1.4,5.1-6.2,3.1-9.8-4.3-7.2-15-10.1-15-10.1,0,0,0,0,0,0,0,0,0,0,0,0M141.7,185.4h0s0,0,0,0M141.7,185.4s6.1,4.1,5.9,8.1c-.3,4-2.9,5.3-2.9,5.3,0,0,2.9-8.6-3-13.4M124.4,198.7h0M35.2,166.2c-1.6,0-3,.7-3.9,1.8-.9,1.2-1,2.9-.3,4.5,5.5,12.7,11,25.4,16.3,37.8.2.9.7,1.8,1.4,2.5.6.7,1.3,1.2,2.1,1.6.8.4,1.7.6,2.5.6s.3,0,.4,0c1.1,0,2.2-.2,3.2-.3,1.7,0,3.5-.2,5.2-.3,1.5,0,2.7-.8,3.4-1.9.4-.6.7-1.4.8-2.2.2-1.4.4-2.8.7-4.3.5,1.3,1.1,2.6,1.6,3.9.9,2.2,3.1,3.8,5.4,3.8s.2,0,.3,0c3-.2,6.1-.3,9.1-.4,1.7,0,3.2-1,3.9-2.5.3-.6.4-1.2.5-1.8.4-2.2.9-4.4,1.3-6.5,0,0,0,0,0,0l.4,3.8v1.1c.1,0,.1.4.1.4.1,1.4.8,2.7,1.9,3.7,1,.9,2.4,1.4,3.7,1.4s.1,0,.2,0c2.8-.1,5.6-.2,8.4-.3.6,0,1.2-.2,1.8-.4.4.1.8.2,1.3.2s0,0,.1,0c.7,0,1.4,0,2.1,0h0s0,0,0,0h0s.4,0,.4,0c.2,0,.5,0,.8,0s.7,0,1.1,0c1.8,0,3.6,0,5.4,0,1.8,0,3.6,0,5.4,0,0,0,0,0,0,0,.2,0,.4,0,.6,0,.3,0,.6,0,.9,0,0,0,.1,0,.2,0s0,0,0,0h.5s.2,0,.2,0c.4,0,.8,0,1.2-.2.5.2,1.1.3,1.6.3s0,0,0,0c1.2,0,2.5,0,3.7,0,.2,0,.5,0,.7,0s0,0,0,0c0,0,0,0,0,0,.2,0,.6,0,1.6,0,0,0,0,0,0,0,.5,0,1.1,0,1.5,0,.9,0,1.8,0,2.6,0,1.6,0,3.3-.1,5.2-.3,0,0,0,0,0,0,2.3-.3,4.4-.7,6.3-1.3,2-.6,3.9-1.5,5.5-2.5,0,0,0,0,0,0,1.8-1.1,3.3-2.5,4.6-4,.3.4.6.8.9,1.2,0,0,0,0,0,0,2.9,3.7,6.7,6,11.3,7.1,1.8.4,3.6.6,5.4.6,2.6,0,5.3-.4,7.9-1.3,0,0,0,0,0,0,1.2-.4,2.5-.9,3.6-1.6,0,.1.1.3.2.4.8,1.3,2.2,2.2,3.8,2.3,3,.2,6.1.4,9,.6.1,0,.2,0,.4,0,1.9,0,3.7-1,4.7-2.6.7,0,1.5,0,2.3,0,.5,0,1,0,1.5,0,0,0,0,.2,0,.2.7,1.6,2.2,2.6,4,2.7,3,.1,6.1.3,9.1.5,0,0,.2,0,.3,0,.4,0,.9,0,1.3-.2.5.2,1.1.4,1.7.4,2.8.2,5.6.4,8.3.6.1,0,.2,0,.4,0,1.3,0,2.6-.5,3.7-1.4,1.2-1,2-2.3,2.2-3.7v-.4c0,0,.2-1.1.2-1.1l.6-3.8,1.8-11.5,1-6.4c.6,0,1.3,0,1.9,0h.8s.3,0,.3,0c2.9-.1,5.6-2.4,6-5.1l1.7-10.4c.2-1.4-.2-2.8-1.1-3.7-.9-.9-2.1-1.4-3.5-1.4s-.3,0-.4,0h-.1s-.1,0-.1,0c-.3,0-.5,0-.8,0-1,0-1.9.1-2.9.2-2.6.2-5.4.4-8.7.6-2.9.2-5.8.4-8.7.5-.9,0-1.9.1-2.8.2-.3,0-.5,0-.8,0h-.3s0,0,0,0c-1.6,0-3.1.8-4.1,1.8-.9-.9-2.2-1.5-3.7-1.5s-.2,0-.3,0c-3.7.2-7.5.3-11.2.5-.4,0-.9,0-1.3.2-2,.4-3.6,1.8-4.3,3.6-.6,1.6-1.2,3.3-1.8,4.9,0,0,0,0,0,0-.4,1.1-.8,2.1-1.2,3.2-.4-1-1-1.9-1.6-2.9-1.6-2.5-3.7-4.4-6.1-5.7-3.2-1.7-6.8-2.6-10.6-2.6s-2.2,0-3.3.2c-2.7.3-5.3,1-7.6,2.1-2.4,1.1-4.5,2.5-6.3,4.3-.7.7-1.4,1.5-2,2.2-.5-.6-1.1-1.2-1.7-1.8,0,0,0,0,0,0-2-1.8-4.4-3.3-7.1-4.3,0,0,0,0-.1,0-1.9-.7-4.2-1.2-7-1.6,0,0,0,0,0,0-1.9-.3-4.3-.4-7.2-.4,0,0,0,0-.1,0-.6,0-1.5,0-2.6,0-.7,0-2,0-3.9,0h-.2c-1.8,0-3,0-3.9,0,0,0,0,0,0,0-1.4,0-2.8.5-3.8,1.5-1,1-1.5,2.3-1.5,3.6v.4s0,.9,0,.9c0,1,0,2.3.1,3.7l.4,11s0,0,0,0v2.4s0,0-.2,0c-.5,0-1.1,0-1.7,0v-2.6c-.1,0-.6-11.1-.6-11.1l-.2-3.6v-1s0-.4,0-.4c-.1-2.8-2.6-5.1-5.6-5.1-3.1,0-6.3-.1-9.4-.2,0,0,0,0-.1,0-.5,0-1,0-1.4.2-.6-.2-1.1-.3-1.8-.3-3,0-6-.2-9-.3,0,0-.1,0-.2,0-.4,0-.7,0-1.1.1-.3,0-.5,0-.8,0-2.8-.1-5.6-.3-8.4-.4-.1,0-.2,0-.3,0-2.4,0-4.3,1.4-4.8,3.5-.4,1.7-.8,3.4-1.2,5.1-.7-1.6-1.4-3.2-2.1-4.7-.2-.7-.5-1.4-1-2-.2-.3-.4-.5-.7-.7-1.1-1.1-2.6-1.7-4.2-1.8-2.8-.1-5.6-.3-8.4-.5,0,0,0,0,0,0h0c-.1,0-.2,0-.3,0-2.4,0-4.3,1.4-4.7,3.5-.2,1.1-.4,2.2-.7,3.3-.5-1.3-1-2.5-1.5-3.8-.9-2.2-3.2-3.8-5.6-3.9-3.3-.2-6.6-.4-9.9-.6-.1,0-.3,0-.4,0h0ZM177.2,194.1c-.7-.2-1-.4-1.2-.6,0,0,0,0,0,0-.3-.4-.5-1.1-.4-2.1,0-.7.2-1.9.7-2.4,0,0,0,0,0,0,.1-.1.5-.4,1.4-.5,0,0,0,0,.1,0,.5,0,1,0,1.4,0s.7,0,.8,0c0,0,.1,0,.2,0,.5,1.3,1.4,2.3,2.7,2.8-.5.4-.9.8-1.2,1.3-.7,1-1.3,1.3-1.8,1.5-.3.1-.7.2-1.1.2s-1,0-1.5-.2h0Z"/>
  <g>
    <g>
      <path class="cls-1" d="M88,225.9h0c1.3-2,5.6-6.5,6.1-8.8.2,2.4,5,10.1,5.5,11.8.4,1,0,0,0,0,0,.2.6,1.3.7,2.9.1,2.2-.6,4.2-2.2,5.7-1.3,1.3-2.9,2-4.7,2s-.2,0-.3,0c-2,0-3.8-1.1-4.8-2-1.1-.9-2.3-2.5-2.5-4.5-.3-2.1.4-4.4,2.2-7Z"/>
      <path class="cls-1" d="M93.4,239.5c0,0-.2,0-.3,0-2.1,0-3.9-1.2-4.8-2-1-.8-2.3-2.4-2.6-4.5-.3-2.1.4-4.4,2.2-7h0c.4-.6,1-1.4,1.8-2.3,1.8-2.2,4-4.9,4.3-6.6v-.2s0,.2,0,.2c.1,1.5,2.1,5.2,3.7,8.1.9,1.6,1.6,3.1,1.8,3.7,0,0,0,0,0,0h0c0,.2.6,1.3.7,2.9.1,2.2-.6,4.2-2.2,5.8-1.3,1.3-3,2-4.7,2ZM88,225.9h0c-1.8,2.6-2.5,4.9-2.2,7,.3,2.1,1.5,3.7,2.5,4.5.9.9,2.7,2,4.8,2,0,0,.2,0,.3,0,1.8,0,3.4-.7,4.7-2,1.5-1.5,2.3-3.5,2.2-5.7,0-1-.3-1.9-.5-2.4,0,0,0,0,0,0h0s0,0,0,0c0,0,0,0,0,0,0,0,0-.2-.1-.4-.2-.6-1-2-1.8-3.7-1.5-2.8-3.4-6.3-3.7-7.9-.4,1.7-2.6,4.3-4.3,6.4-.7.9-1.4,1.7-1.8,2.3h0Z"/>
    </g>
    <path class="cls-2" d="M93.6,222.5l3.5,7.4s1.4,3.1-1,5.5-5.3.6-6-.2c-.7-.8-.6-3.6-.6-3.6l3.2-7.1.9-2.1Z"/>
    <path class="cls-8" d="M93.6,222.5s-2,2.9-3.4,4.9c-1.4,2-2,3.6-1.8,5.1.2,1.4,1.1,2.5,1.6,2.8,0,0-1.1-2.5.5-5.3,1.5-2.8,3-6.3,3-7.4Z"/>
  </g>
  <g>
    <g>
      <path class="cls-1" d="M80.6,192.6s9.9,13.5,5.7,28.3c-2.3,7.5-12.3,6.8-13.7,6.3-1.3-.5-5.4-1.4-5.4-9.7,0-8.3,11.8-12.4,13.3-24.9Z"/>
      <path class="cls-1" d="M75.3,227.6c-1.3,0-2.3-.1-2.7-.3,0,0-.1,0-.2,0-.7-.2-2-.7-3.2-2-1.4-1.7-2-4.2-2-7.6s2.5-6.8,5.5-10.2c3.3-3.8,7-8.1,7.8-14.8h0c0,0,0,0,0,0,0,0,2.5,3.4,4.4,8.6,1.1,3,1.9,6.1,2.2,9,.4,3.7,0,7.3-.9,10.7-.7,2.3-2.2,4-4.4,5.2-2.2,1.1-4.7,1.4-6.6,1.4ZM80.6,192.7c-.8,6.6-4.6,10.9-7.8,14.7-2.9,3.4-5.5,6.3-5.5,10.1s.7,5.9,2,7.6c1.1,1.4,2.4,1.8,3.1,2,0,0,.1,0,.2,0,.8.3,5.5.7,9.2-1.2,2.2-1.1,3.7-2.9,4.4-5.1,1-3.4,1.3-7,.9-10.7-.3-3-1-6-2.2-9-1.8-4.8-4-8-4.4-8.5Z"/>
    </g>
    <path class="cls-2" d="M81.4,199.6s4.9,10.4,2,20.4c-1.6,5.1-8.3,4.6-9.2,4.2s-3.6-1-3.6-6.5c0-5.6,9.7-9.7,10.8-18.1Z"/>
    <path class="cls-8" d="M80.1,207.3c-1.2,3.1-3.7,5-5.6,7.3-.8.9-1.4,2-.6,3.2.5.8,1.3,1.5,2.4,1.3,1.2-.2,1.9-1.1,2.1-2.2.9-3.1,1.8-6,1.8-9.7Z"/>
  </g>
  <g>
    <g>
      <path class="cls-1" d="M63.5,169.9c1.1-1.5,2.3-2.9,3.4-4.3.2-.3.4-.2.6,0,1.2,1.4,2.6,2.7,3.6,4.2,1.1,1.8,1,3.9-.2,5.4-1.2,1.5-3.3,2-5.1,1.4-1.8-.7-3-2.3-3-4.3,0-.8.3-1.7.8-2.4ZM67.1,167.7c-.6,1-1.3,2.1-1.8,3.2-.6,1.5,0,2.8,1.6,3.3,1.8.4,3.2-.9,2.7-2.7-.4-1.4-1.1-2.6-2.1-3.6-.1-.2-.2-.6-.4-.2Z"/>
      <path class="cls-1" d="M67.3,177c-.5,0-1.1,0-1.6-.3-1.8-.7-3-2.3-3-4.3,0-.8.2-1.7.8-2.4h0c.7-.9,1.4-1.8,2.1-2.7.4-.5.9-1.1,1.3-1.6.1-.1.2-.2.3-.2.1,0,.2,0,.3.2.4.5.9,1,1.3,1.5.8.9,1.6,1.7,2.3,2.8,1.1,1.8,1,3.9-.2,5.4-.9,1.1-2.2,1.7-3.5,1.7ZM63.5,169.9h0c-.6.8-.8,1.6-.8,2.4,0,2,1.1,3.6,3,4.3,1.9.7,3.9.1,5.1-1.4,1.2-1.5,1.3-3.6.2-5.4-.6-1-1.4-1.9-2.2-2.7-.5-.5-.9-1-1.3-1.5-.1-.1-.2-.2-.3-.2h0c0,0-.2,0-.3.2-.4.5-.9,1.1-1.3,1.6-.7.9-1.4,1.8-2.1,2.7h0ZM67.7,174.4c-.2,0-.5,0-.7,0-.8-.3-1.4-.8-1.7-1.4-.3-.6-.2-1.3,0-2,.4-.9.9-1.8,1.5-2.6.1-.2.2-.4.3-.6h0c0-.1.2-.2.2-.2,0,0,.1.1.2.2,0,0,0,0,0,.1,1.1,1.1,1.8,2.4,2.1,3.7.2.9,0,1.7-.5,2.2-.4.4-1,.6-1.6.6ZM67.2,167.8h0c-.1.2-.2.4-.3.6-.5.8-1.1,1.7-1.5,2.6-.3.7-.3,1.3,0,1.9.3.6.8,1.1,1.7,1.4.9.2,1.7,0,2.2-.5.5-.5.7-1.3.5-2.1-.3-1.3-1-2.5-2.1-3.6h0s0,0,0-.1c0,0,0-.2-.1-.2,0,0,0,0-.2.2Z"/>
    </g>
    <path class="cls-3" d="M67,174.2c1.8.4,3.2-.9,2.7-2.7-.4-1.4-1.4-3.1-2.3-4.1-1.1,4-1,5.3-.4,6.8Z"/>
    <path class="cls-8" d="M67,174.2c-.8-2.9.4-6.8.4-6.8,0,0-1.5,2.4-2,3.5-.6,1.5,0,2.8,1.6,3.3Z"/>
  </g>
  <g>
    <g>
      <path class="cls-1" d="M195.4,231.2h0c-1.6-2.3-6.6-7.5-7.1-10.3-.2,2.8-5.8,11.7-6.4,13.7-.4,1.2,0,0,0,0-.1.2-.7,1.5-.8,3.3-.1,2.6.7,4.9,2.5,6.7,1.5,1.5,3.4,2.3,5.5,2.3s.2,0,.3,0c2.3,0,4.4-1.2,5.6-2.4,1.3-1,2.6-2.9,3-5.2.3-2.4-.5-5.1-2.6-8.1Z"/>
      <path class="cls-1" d="M189.1,247c-2.1,0-4-.8-5.5-2.4-1.8-1.8-2.7-4.1-2.6-6.7,0-1.8.6-3.1.8-3.3h0s0,0,0,0c.2-.7,1.1-2.4,2.1-4.3,1.8-3.4,4.1-7.6,4.3-9.4v-.2s0,.2,0,.2c.4,1.9,2.9,5.1,5,7.6.9,1.1,1.6,2,2.1,2.6h0c2.1,3,2.9,5.7,2.6,8.2-.3,2.5-1.8,4.3-3,5.3-1.1,1-3.2,2.3-5.6,2.4-.1,0-.2,0-.3,0ZM181.7,235.2c-.2.6-.5,1.6-.5,2.8-.1,2.6.7,4.8,2.5,6.6,1.5,1.5,3.4,2.3,5.4,2.3s.2,0,.3,0c2.4,0,4.5-1.3,5.6-2.4,1.2-.9,2.6-2.8,3-5.2.3-2.4-.5-5.1-2.6-8.1-.5-.7-1.2-1.6-2.1-2.6-2-2.5-4.5-5.5-5-7.5-.3,1.9-2.5,6-4.3,9.3-1,1.9-1.9,3.5-2.1,4.2,0,.2-.1.3-.1.4,0,0,0,0,0,0,0,0,0,0,0,0h0s0,0,0,0Z"/>
    </g>
    <path class="cls-2" d="M188.8,227.3l-4.1,8.6s-1.6,3.6,1.1,6.4,6.2.7,7-.2c.8-.9.7-4.2.7-4.2l-3.7-8.2-1-2.4Z"/>
    <path class="cls-8" d="M188.8,227.3s2.3,3.4,3.9,5.7c1.6,2.3,2.3,4.2,2,5.9s-1.3,2.9-1.9,3.3c0,0,1.2-2.9-.6-6.2-1.8-3.3-3.5-7.4-3.5-8.7Z"/>
  </g>
  <g>
    <g>
      <path class="cls-1" d="M213.6,200.1s-9.9,13.5-5.7,28.3c2.3,7.5,12.3,6.8,13.7,6.3,1.3-.5,5.4-1.4,5.4-9.7s-11.8-12.4-13.3-24.9Z"/>
      <path class="cls-1" d="M218.9,235.1c-1.9,0-4.4-.3-6.6-1.4-2.2-1.1-3.7-2.9-4.4-5.2-1-3.4-1.3-7-.9-10.7.3-3,1-6,2.2-9,1.9-5.2,4.4-8.6,4.4-8.6h0c0,0,0,0,0,0,.8,6.7,4.5,11,7.8,14.8,2.9,3.4,5.5,6.3,5.5,10.2s-.7,6-2,7.6c-1.1,1.4-2.4,1.8-3.2,2,0,0-.1,0-.2,0-.4.1-1.3.3-2.7.3ZM213.6,200.2c-.4.5-2.6,3.8-4.4,8.5-1.1,3-1.9,6.1-2.2,9-.4,3.7,0,7.3.9,10.7.7,2.3,2.2,4,4.4,5.1,3.7,1.9,8.4,1.5,9.2,1.2,0,0,.1,0,.2,0,.8-.3,2-.7,3.1-2,1.3-1.6,2-4.2,2-7.6s-2.5-6.8-5.5-10.1c-3.3-3.8-7-8.1-7.8-14.7Z"/>
    </g>
    <path class="cls-2" d="M212.8,207.1s-4.9,10.4-2,20.4c1.6,5.1,8.3,4.6,9.2,4.2s3.6-1,3.6-6.5-9.7-9.7-10.8-18.1Z"/>
    <path class="cls-8" d="M214.1,214.8c1.2,3.1,3.7,5,5.6,7.3.8.9,1.4,2,.6,3.2-.5.8-1.3,1.5-2.4,1.3-1.2-.2-1.9-1.1-2.1-2.2-.9-3.1-1.8-6-1.8-9.7Z"/>
  </g>
  <g>
    <g>
      <path class="cls-1" d="M228.3,172.7c0,2-1.2,3.7-3,4.3-1.9.7-3.9.1-5.1-1.4-1.2-1.5-1.3-3.6-.2-5.4,1-1.6,2.4-2.8,3.6-4.2.2-.2.4-.3.6,0,1.1,1.4,2.3,2.8,3.4,4.3.5.7.9,1.6.8,2.4ZM223.4,168.2c-1,1-1.7,2.3-2.1,3.6-.5,1.8.9,3.1,2.7,2.7,1.6-.5,2.3-1.8,1.6-3.3-.5-1.1-1.2-2.2-1.8-3.2-.3-.4-.3,0-.4.2Z"/>
      <path class="cls-1" d="M223.7,177.3c-1.4,0-2.7-.6-3.5-1.7-1.2-1.5-1.3-3.7-.2-5.4.6-1,1.5-1.9,2.3-2.8.5-.5.9-1,1.3-1.5.1-.1.2-.2.3-.2.1,0,.2,0,.3.2.4.5.9,1.1,1.3,1.6.7.9,1.4,1.8,2.1,2.7.6.8.9,1.7.8,2.4,0,2-1.1,3.7-3,4.3-.5.2-1.1.3-1.6.3ZM223.8,165.8c0,0-.2,0-.3.2-.4.5-.9,1-1.3,1.5-.8.9-1.6,1.7-2.2,2.7-1.1,1.7-1,3.9.2,5.4,1.2,1.5,3.2,2,5.1,1.4,1.8-.7,3-2.3,3-4.3h0c0-.8-.2-1.6-.8-2.4-.7-.9-1.4-1.8-2.1-2.7-.4-.5-.9-1.1-1.3-1.6,0-.1-.2-.2-.3-.2h0ZM223.4,174.7c-.6,0-1.2-.2-1.6-.6-.5-.5-.7-1.3-.5-2.2.3-1.3,1-2.5,2.1-3.7,0,0,0,0,0-.1,0-.1.1-.2.2-.2,0,0,.1,0,.2.2.1.2.2.4.3.6.5.8,1.1,1.7,1.5,2.6.3.7.3,1.4,0,2-.3.6-.9,1.1-1.7,1.4-.2,0-.5,0-.7,0ZM223.7,167.9s0,0,0,0c0,0-.1.1-.1.2,0,0,0,0,0,.1h0c-1.1,1.1-1.8,2.3-2.1,3.6-.2.8,0,1.6.5,2.1.5.5,1.3.7,2.2.5.8-.3,1.4-.7,1.7-1.4.2-.6.2-1.2,0-1.9-.4-.9-.9-1.8-1.5-2.6-.1-.2-.2-.4-.3-.6,0-.1-.1-.2-.2-.2Z"/>
    </g>
    <path class="cls-3" d="M224.1,174.6c-1.8.4-3.2-.9-2.7-2.7.4-1.4,1.4-3.1,2.3-4.1,1.1,4,1,5.3.4,6.8Z"/>
    <path class="cls-8" d="M224.1,174.6c.8-2.9-.4-6.8-.4-6.8,0,0,1.5,2.4,2,3.5.6,1.5,0,2.8-1.6,3.3Z"/>
  </g>
  <g>
    <path class="cls-2" d="M133.2,179.9c3.9,4,3,10.8,3,10.8,0,.6-1.1,3.2,0,6.4.7,2.2,3.3,3.4,5.8,3.4s2.2-.2,3.2-.7c3.2-1.4,5.1-6.2,3.1-9.8-4.3-7.2-15-10.1-15-10.1,0,0,0,0,0,0,0,0,0,0,0,0M141.7,185.4h0s0,0,0,0M141.7,185.4s6.1,4.1,5.9,8.1c-.3,4-2.9,5.3-2.9,5.3,0,0,2.9-8.6-3-13.4M124.4,198.7h0"/>
    <path class="cls-1" d="M142,203c-1.7,0-3.4-.4-4.8-1.1-1.7-.9-2.9-2.3-3.5-4-1-3.1-.4-5.7-.1-7,0,0,0-.2,0-.3,0,0,0-.1,0-.2,0,0,0,0,0,0,0,0,.6-5-1.8-9-.3-.5-3.6-4.7-3.6-4.7,0,0,5.2,1.1,5.7,1.2,1,.3,3.7.7,6.7,2.2,4.5,2.3,7.8,5.2,9.7,8.5,0,0,0,0,0,0,1.3,2.2,1.5,5,.7,7.6-.8,2.6-2.7,4.8-4.9,5.8-1.3.6-2.7.9-4.3.9ZM142.3,197.8s0,0,0,0h0s0,0,0,0ZM142.4,197.6s0,0,0,0c0,0,0,0,0,0h0ZM133.6,190.9s0,0,0,0c0,0,0,0,0,0ZM134.6,177.7s0,0,0,0c0,0,0,0,0,0ZM134.6,177.7s0,0,0,0h0ZM124.4,201.2v-5.1s0,0,0,0v5.1Z"/>
  </g>
  <path class="cls-2" d="M133.2,179.9c3.9,4,3,10.8,3,10.8,0,.6-1.1,3.2,0,6.4.7,2.2,3.3,3.4,5.8,3.4s2.2-.2,3.2-.7c3.2-1.4,5.1-6.2,3.1-9.8-4.3-7.2-15-10.1-15-10.1,0,0,0,0,0,0,0,0,0,0,0,0M141.7,185.4h0s0,0,0,0M141.7,185.4s6.1,4.1,5.9,8.1c-.3,4-2.9,5.3-2.9,5.3,0,0,2.9-8.6-3-13.4M124.4,198.7h0"/>
  <path class="cls-6" d="M141.7,185.4s6.1,4.1,5.9,8.1c-.3,4-2.9,5.3-2.9,5.3,0,0,2.9-8.6-3-13.4"/>
  <g>
    <g>
      <path class="cls-1" d="M71.3,94.6c2.5-4.2,6.1-7.4,8.8-11.4.5-.7.8-.4,1.2.2,2.2,3.2,4.4,6.3,6.6,9.4,1,1.5,1.9,3.2,2.4,4.9,1.3,4.5.2,8.3-3.2,11.4-3.4,3-7.3,3.5-11.4,1.6-4.1-1.9-6.2-5.3-6.4-9,0-3.1.5-4.8,1.9-7.2Z"/>
      <path class="cls-1" d="M80.4,112c-1.5,0-3.1-.4-4.7-1.1-2-.9-3.6-2.2-4.7-3.9-1-1.5-1.6-3.3-1.7-5.2,0-3,.5-4.8,1.9-7.2,1.4-2.4,3.3-4.5,5-6.6,1.3-1.5,2.7-3.1,3.8-4.8.2-.3.4-.4.6-.4h0c.3,0,.5.3.7.6,1,1.4,2,2.8,3,4.2,1.2,1.7,2.5,3.5,3.7,5.2,1.2,1.7,1.9,3.3,2.4,5,1.3,4.6.2,8.4-3.2,11.5-2.1,1.8-4.4,2.8-6.8,2.8ZM71.3,94.6h0c-1.5,2.5-1.9,4.2-1.9,7.2,0,1.9.7,3.7,1.7,5.2,1.1,1.6,2.7,2.9,4.6,3.8,4.1,1.9,8,1.3,11.4-1.6,3.4-3,4.5-6.8,3.2-11.4-.5-1.6-1.2-3.3-2.4-4.9-1.2-1.7-2.5-3.5-3.7-5.2-1-1.4-2-2.8-3-4.2-.2-.4-.4-.6-.6-.6,0,0,0,0,0,0-.2,0-.3.1-.5.4-1.2,1.7-2.5,3.3-3.8,4.8-1.8,2.1-3.6,4.2-5,6.6h0Z"/>
    </g>
    <path class="cls-3" d="M74.9,96c1.5-2.7,3.6-4.8,5.2-7.3.3-.5.5-.3.7.1,1.3,2,2.6,4,3.9,6.1.6,1,1.1,2,1.4,3.2.7,2.9.1,5.4-1.9,7.3-2,1.9-4.3,2.3-6.8,1.1-2.4-1.2-3.7-3.4-3.8-5.8,0-2,.3-3.1,1.1-4.6Z"/>
    <path class="cls-8" d="M74.9,96c1.5-2.7,3.6-4.8,5.2-7.3-1,2.5-2.3,4.6-3.2,7.3-.5,1.5-.7,2.6-.7,4.6,0,2.4.8,4.6,2.3,5.8.5.4,1.1.7,1.6.7-.8,0-1.7-.3-2.6-.7-2.4-1.2-3.7-3.4-3.8-5.8,0-2,.3-3.1,1.1-4.6Z"/>
  </g>
</svg>